<?xml version="1.0" standalone="no"?>
<!DOCTYPE svg PUBLIC "-//W3C//DTD SVG 20010904//EN"
 "http://www.w3.org/TR/2001/REC-SVG-20010904/DTD/svg10.dtd">
<svg version="1.0" xmlns="http://www.w3.org/2000/svg"
 width="3683.000000pt" height="2195.000000pt" viewBox="0 0 3683.000000 2195.000000"
 preserveAspectRatio="xMidYMid meet">

<g transform="translate(0.000000,2195.000000) scale(0.100000,-0.100000)"
fill="#000000" stroke="none">
<path d="M19911 18460 c-269 -71 -467 -271 -522 -530 -15 -69 -18 -1532 -10
-4350 2 -696 1 -2480 -1 -3965 -5 -2884 -5 -2904 42 -2995 11 -22 20 -44 20
-50 0 -6 23 -44 50 -84 197 -289 544 -398 871 -274 206 78 378 269 434 483 13
53 15 637 15 5630 0 4935 -2 5578 -15 5630 -8 33 -34 98 -56 143 -75 153 -242
292 -419 350 -105 34 -301 40 -409 12z"/>
<path d="M24175 15239 c-377 -30 -844 -141 -1120 -264 -16 -7 -68 -30 -115
-50 -263 -113 -604 -343 -816 -553 -83 -82 -224 -243 -224 -257 0 -4 -11 -21
-25 -39 -14 -17 -33 -41 -43 -52 -9 -12 -23 -30 -29 -40 -7 -11 -24 -36 -38
-57 -14 -21 -25 -44 -25 -51 0 -7 -11 -25 -25 -40 -14 -15 -25 -33 -25 -40 0
-8 -6 -19 -14 -25 -8 -7 -18 -25 -21 -41 -3 -16 -12 -34 -20 -40 -8 -6 -17
-26 -20 -43 -4 -18 -13 -39 -21 -48 -8 -8 -18 -36 -22 -61 -5 -25 -16 -56 -25
-69 -10 -13 -17 -36 -17 -52 0 -15 -7 -39 -16 -52 -10 -15 -19 -58 -23 -109
-3 -46 -12 -90 -18 -98 -53 -63 -51 -745 1 -820 10 -14 16 -44 16 -78 0 -36 7
-68 20 -93 11 -20 20 -50 20 -65 0 -16 9 -39 20 -52 11 -13 20 -35 20 -50 0
-15 9 -37 20 -50 11 -13 20 -29 20 -35 0 -7 8 -23 19 -36 10 -13 22 -39 25
-56 4 -18 12 -33 17 -33 6 0 17 -15 25 -32 24 -51 48 -93 62 -109 7 -8 26 -32
42 -54 16 -22 35 -46 42 -54 7 -8 15 -20 18 -27 14 -36 218 -249 325 -340 90
-77 313 -241 393 -289 9 -5 31 -20 49 -32 17 -13 34 -23 37 -23 3 0 39 -20 80
-44 79 -47 280 -149 356 -181 25 -10 83 -36 129 -57 46 -21 95 -41 110 -45 14
-3 31 -9 36 -13 6 -4 35 -17 65 -28 30 -12 100 -39 154 -62 55 -22 107 -40
116 -40 9 0 20 -4 26 -9 5 -4 32 -16 59 -26 55 -19 77 -27 115 -42 66 -27 341
-123 405 -142 273 -79 768 -239 875 -282 199 -80 501 -235 535 -275 6 -6 37
-31 70 -55 103 -74 164 -127 221 -191 31 -35 60 -64 65 -66 5 -2 9 -9 9 -17 0
-7 7 -18 15 -25 15 -12 70 -108 126 -218 17 -33 29 -74 29 -97 1 -22 8 -58 16
-80 24 -64 30 -247 9 -325 -9 -36 -19 -98 -22 -137 -4 -53 -11 -77 -24 -89
-11 -10 -19 -27 -19 -39 0 -12 -9 -34 -20 -48 -11 -14 -20 -31 -20 -38 0 -15
-79 -135 -135 -204 -82 -102 -237 -238 -357 -313 -37 -23 -69 -42 -72 -42 -2
0 -30 -15 -63 -33 -157 -89 -431 -176 -668 -213 -163 -26 -620 -25 -800 0
-123 18 -137 21 -290 56 -519 121 -898 393 -1221 877 -130 195 -302 325 -492
373 -97 25 -274 27 -361 4 -122 -31 -248 -101 -322 -181 -39 -41 -109 -138
-109 -151 0 -4 -9 -25 -21 -47 -45 -83 -45 -407 0 -490 11 -22 21 -46 21 -53
0 -7 6 -15 14 -18 8 -3 17 -22 21 -42 4 -20 15 -45 26 -55 10 -10 19 -25 19
-33 0 -9 9 -27 20 -41 11 -14 20 -31 20 -38 0 -6 9 -20 20 -30 11 -10 20 -23
20 -30 0 -7 9 -20 20 -30 11 -10 20 -24 20 -32 0 -7 9 -21 20 -30 11 -10 20
-22 20 -28 0 -9 58 -79 104 -126 9 -9 16 -19 16 -23 0 -3 19 -26 43 -50 23
-25 53 -57 67 -73 72 -80 236 -215 400 -330 273 -190 546 -326 900 -447 331
-114 626 -174 1080 -221 30 -3 201 -6 380 -6 370 -1 480 9 815 71 249 47 589
167 880 312 123 61 412 240 440 273 5 6 22 19 37 28 76 47 308 267 413 391 22
26 55 64 72 85 18 20 58 75 88 122 30 46 58 89 63 94 10 13 92 158 120 212 11
23 24 58 28 78 3 20 13 39 20 42 7 3 17 21 20 41 4 20 15 55 25 77 10 22 19
49 19 59 0 11 7 27 16 37 8 9 19 42 23 72 4 31 13 62 20 71 7 8 16 61 20 120
5 66 13 111 22 122 11 14 14 75 14 338 0 287 -2 324 -17 353 -10 18 -18 51
-18 75 0 24 -8 57 -17 73 -9 17 -19 65 -23 114 -5 63 -10 85 -23 93 -9 5 -17
17 -17 26 0 10 -7 28 -17 41 -9 13 -20 44 -25 69 -4 24 -14 50 -22 56 -8 6
-17 27 -20 48 -4 20 -13 38 -20 41 -7 3 -17 18 -20 33 -4 15 -14 33 -22 39
-16 11 -34 39 -59 93 -8 17 -20 32 -25 32 -6 0 -15 11 -20 25 -10 27 -20 41
-57 81 -13 14 -23 29 -23 34 0 4 -55 64 -122 132 -133 134 -290 270 -378 326
-30 19 -79 51 -108 71 -214 144 -531 305 -807 411 -370 142 -587 219 -930 331
-899 292 -1018 336 -1264 464 -206 107 -322 188 -445 312 -131 132 -136 137
-136 150 0 5 -11 22 -25 37 -14 15 -25 34 -25 42 0 7 -9 23 -20 34 -11 11 -20
32 -20 46 0 15 -7 32 -15 38 -11 8 -19 39 -24 91 -5 44 -16 94 -25 110 -23 43
-23 277 0 320 9 17 20 66 24 110 7 73 33 144 69 189 5 6 12 22 16 35 8 26 43
81 69 106 9 9 16 20 16 24 0 13 130 144 185 187 28 21 53 44 58 51 8 12 82 60
162 103 93 51 284 119 420 150 28 6 66 15 85 20 121 30 305 44 580 44 272 0
291 -1 425 -28 260 -52 425 -117 658 -258 184 -111 441 -318 662 -533 124
-121 182 -145 346 -145 111 0 179 19 303 83 149 77 270 227 310 383 20 79 20
208 0 288 -48 193 -197 428 -398 630 -439 442 -1073 727 -1846 830 -257 34
-611 45 -855 25z"/>
<path d="M11044 15230 c-73 -13 -174 -52 -241 -91 -66 -40 -175 -145 -220
-213 -46 -69 -90 -182 -103 -260 -7 -47 -9 -731 -5 -2313 5 -1872 9 -2249 20
-2267 9 -14 16 -76 20 -196 6 -130 11 -179 22 -191 10 -12 16 -53 20 -130 3
-68 12 -125 20 -142 8 -16 17 -61 20 -100 3 -40 12 -82 20 -95 8 -13 18 -62
23 -109 5 -46 14 -91 20 -98 6 -7 15 -37 20 -66 4 -30 14 -67 21 -84 7 -16 18
-52 25 -80 16 -68 52 -167 64 -179 6 -6 10 -19 10 -31 0 -11 9 -38 20 -60 11
-22 20 -44 20 -50 0 -6 9 -27 20 -48 11 -20 20 -42 20 -48 0 -15 51 -130 66
-149 6 -8 17 -33 24 -54 7 -22 28 -65 46 -97 19 -32 34 -60 34 -63 0 -6 31
-61 85 -151 11 -19 36 -60 55 -92 19 -32 47 -76 62 -98 16 -22 36 -51 46 -65
156 -231 422 -522 637 -696 102 -82 338 -252 365 -262 8 -3 38 -20 65 -37 132
-84 433 -218 635 -283 536 -174 1190 -219 1725 -118 120 23 148 29 245 54 186
48 438 146 640 248 159 80 207 108 412 238 203 128 507 379 651 536 18 18 51
52 75 74 23 21 42 45 42 52 0 8 9 19 20 26 11 7 20 18 20 24 0 11 31 39 99 91
l29 23 6 -35 c4 -20 8 -219 9 -443 l2 -407 27 -67 c77 -189 197 -326 353 -406
245 -124 598 -78 807 106 56 50 156 182 188 248 67 143 62 -168 64 4089 2
3621 1 3857 -15 3963 -10 62 -24 125 -32 140 -8 15 -24 48 -36 74 -74 152
-266 304 -446 353 -96 26 -247 31 -344 11 -107 -22 -168 -46 -250 -101 -119
-79 -195 -162 -255 -280 -71 -140 -66 37 -66 -2398 0 -1596 -3 -2204 -11
-2219 -6 -12 -17 -66 -24 -122 -20 -154 -44 -284 -66 -361 -42 -147 -71 -241
-85 -273 -8 -18 -14 -38 -14 -44 0 -6 -9 -29 -19 -52 -11 -23 -41 -90 -68
-151 -26 -60 -64 -140 -85 -177 -21 -37 -38 -70 -38 -73 0 -5 -8 -18 -57 -90
-11 -17 -24 -42 -28 -55 -4 -14 -15 -32 -24 -41 -9 -9 -25 -29 -36 -45 -54
-75 -220 -276 -272 -329 -221 -222 -400 -358 -663 -501 -120 -65 -318 -151
-420 -182 -329 -100 -681 -132 -1050 -97 -525 50 -954 243 -1301 585 -64 63
-145 153 -174 194 -11 15 -39 53 -62 83 -24 30 -43 59 -43 63 0 4 -8 16 -17
28 -19 22 -38 53 -86 142 -16 30 -36 62 -43 71 -8 8 -14 21 -14 27 0 6 -11 32
-25 58 -14 26 -25 53 -25 61 0 7 -6 16 -14 19 -8 3 -17 22 -20 42 -7 39 -35
112 -67 174 -10 20 -19 50 -19 65 0 16 -9 45 -20 66 -11 20 -20 52 -20 70 0
18 -9 50 -20 72 -11 22 -20 55 -20 75 0 19 -7 64 -15 100 -8 36 -21 106 -29
156 -7 50 -18 106 -24 125 -6 19 -15 107 -20 197 -6 103 -14 168 -22 177 -10
12 -12 452 -9 2203 4 2410 9 2220 -62 2367 -86 180 -243 316 -434 375 -80 25
-275 35 -361 20z"/>
<path d="M1530 15216 c-187 -40 -353 -152 -453 -304 -59 -91 -83 -151 -102
-261 -15 -87 -16 -543 -12 -5615 5 -6112 -1 -5580 70 -5724 126 -256 403 -416
687 -399 115 7 190 27 295 77 175 84 336 285 374 468 17 83 15 3656 -2 3670
-18 16 -20 97 -2 112 8 7 15 18 15 26 0 7 4 15 8 18 14 8 84 -33 106 -63 39
-51 122 -127 231 -211 428 -329 866 -562 1397 -741 206 -69 497 -137 718 -169
41 -5 109 -15 150 -21 41 -6 254 -14 472 -16 456 -6 548 1 933 66 231 40 579
142 830 244 150 62 448 206 580 282 196 113 511 331 645 449 20 17 62 54 94
81 106 91 384 373 458 465 24 30 61 73 81 95 20 22 40 48 43 58 3 9 9 17 13
17 4 0 22 21 40 48 17 26 47 67 66 92 19 25 38 52 42 60 4 8 24 37 45 63 21
27 38 55 38 62 0 7 6 18 14 24 8 7 34 44 58 84 76 127 98 169 98 185 0 6 4 12
9 12 5 0 16 17 25 38 9 20 21 44 26 52 6 8 14 26 20 40 5 14 14 32 19 40 24
39 61 121 61 136 0 9 9 27 20 41 11 14 20 35 20 47 0 11 9 35 20 51 11 17 20
37 20 46 0 9 9 28 20 42 11 14 20 36 20 49 0 13 9 40 20 61 11 20 20 50 20 66
0 15 9 39 19 53 11 13 22 46 26 73 4 28 13 61 20 75 7 14 16 45 20 70 4 24 14
55 22 67 8 12 17 51 20 85 3 35 12 74 21 87 9 15 17 59 20 115 3 63 9 97 20
109 13 14 17 50 20 170 3 123 7 156 21 171 14 16 16 61 16 410 0 345 -2 394
-16 416 -13 19 -18 59 -22 178 -3 109 -9 158 -19 175 -8 12 -18 61 -22 110 -3
49 -12 103 -20 121 -8 18 -17 56 -21 83 -3 28 -13 63 -21 78 -8 15 -18 54 -24
87 -5 33 -13 65 -18 71 -6 7 -13 28 -17 47 -4 19 -15 53 -25 75 -10 22 -22 58
-28 80 -16 63 -42 129 -58 146 -8 8 -14 26 -14 40 0 13 -9 39 -20 57 -11 18
-20 39 -20 46 0 7 -9 25 -20 39 -11 14 -20 33 -20 42 0 14 -74 172 -101 215
-5 8 -15 26 -21 40 -7 14 -18 28 -24 32 -7 4 -14 18 -17 30 -8 32 -54 114
-129 231 -21 32 -38 61 -38 64 0 4 -7 15 -17 25 -9 10 -21 27 -27 37 -40 69
-229 323 -273 369 -10 9 -40 46 -68 80 -27 34 -131 142 -230 240 -223 220
-342 320 -582 493 -345 247 -794 476 -1196 610 -499 166 -1010 240 -1557 226
-696 -18 -1273 -160 -1895 -467 -336 -165 -692 -396 -911 -589 -61 -54 -88
-79 -99 -90 -5 -6 -35 -30 -65 -54 l-55 -43 -27 26 c-33 30 -33 33 -8 85 17
36 19 64 20 286 0 272 -5 314 -51 425 -41 97 -102 179 -186 249 -146 121 -261
165 -448 171 -77 2 -143 -2 -185 -10z m4421 -1455 c209 -34 268 -45 399 -77
310 -75 577 -191 901 -390 86 -52 285 -199 368 -270 42 -36 230 -214 248 -234
110 -126 158 -187 228 -286 22 -31 48 -65 58 -75 9 -10 17 -22 17 -25 0 -4 17
-32 37 -63 46 -68 59 -92 149 -273 112 -223 144 -293 144 -314 0 -11 9 -37 20
-59 11 -22 20 -46 20 -55 0 -8 9 -32 20 -53 11 -20 20 -49 20 -64 0 -16 11
-74 25 -131 14 -57 25 -110 25 -118 0 -8 8 -34 19 -57 49 -111 47 -1060 -3
-1152 -9 -16 -16 -38 -16 -47 0 -43 -75 -330 -106 -403 -7 -16 -25 -64 -40
-105 -48 -129 -165 -365 -266 -533 -13 -21 -30 -51 -38 -66 -9 -15 -21 -34
-28 -42 -7 -7 -56 -72 -109 -144 -163 -217 -475 -517 -692 -664 -200 -136
-410 -249 -616 -334 -110 -45 -309 -113 -375 -128 -19 -4 -64 -15 -100 -24
-185 -47 -405 -69 -710 -69 -280 -1 -355 5 -570 45 -832 157 -1574 653 -2042
1364 -85 129 -168 270 -168 284 0 5 -9 18 -20 31 -11 13 -20 30 -20 38 0 7
-17 48 -38 90 -44 87 -92 205 -92 226 0 7 -6 19 -14 25 -8 6 -17 31 -20 54 -4
23 -13 55 -21 70 -8 15 -19 56 -25 90 -7 33 -18 73 -26 89 -8 15 -14 44 -14
65 0 21 -9 74 -19 118 -10 44 -22 130 -26 190 -4 61 -13 128 -21 150 -19 56
-20 385 0 423 7 15 17 74 20 132 4 58 14 132 21 166 8 33 19 98 24 144 6 45
15 88 20 94 5 6 12 27 16 46 9 47 57 198 90 285 15 39 32 88 38 110 7 22 20
51 30 65 9 13 17 29 17 34 0 14 132 279 146 293 7 7 27 37 44 65 17 29 44 73
60 98 17 25 33 51 36 59 4 7 22 30 40 50 19 20 34 39 34 42 0 17 163 208 261
308 90 90 226 208 329 286 58 43 110 84 115 90 6 7 35 26 65 44 30 18 62 36
70 41 47 30 220 128 250 142 19 9 79 37 133 62 54 25 102 46 107 46 5 0 33 11
62 24 92 41 317 108 437 131 46 8 88 18 93 21 9 6 117 18 303 34 127 11 591 4
676 -9z"/>
<path d="M31960 15224 c-247 -21 -309 -27 -400 -40 -1042 -149 -2046 -686
-2754 -1474 -67 -74 -135 -153 -151 -175 -17 -22 -42 -53 -57 -70 -16 -16 -28
-33 -28 -37 0 -3 -20 -30 -43 -60 -47 -57 -182 -257 -236 -348 -18 -30 -46
-77 -63 -105 -32 -52 -157 -298 -201 -395 -131 -289 -242 -617 -282 -833 -8
-43 -17 -82 -20 -87 -3 -4 -13 -54 -24 -111 -11 -57 -22 -117 -25 -134 -4 -16
-10 -122 -15 -235 -5 -135 -12 -213 -21 -229 -20 -38 -20 -411 0 -436 11 -13
16 -69 21 -259 5 -181 11 -251 23 -281 8 -22 15 -62 16 -89 0 -34 5 -53 17
-61 13 -10 18 -34 22 -102 5 -67 10 -94 24 -107 12 -12 17 -33 17 -70 0 -40 5
-57 20 -71 16 -14 20 -31 20 -75 0 -43 5 -63 20 -80 11 -13 20 -32 20 -42 0
-11 9 -31 20 -45 14 -18 20 -41 20 -74 0 -36 5 -54 20 -69 11 -11 20 -31 20
-44 0 -13 8 -34 19 -47 10 -13 21 -40 25 -60 4 -21 13 -42 21 -49 8 -7 17 -27
21 -46 3 -18 12 -38 19 -44 8 -6 17 -26 21 -43 3 -18 15 -40 25 -50 11 -10 19
-29 19 -42 0 -14 9 -34 20 -45 11 -11 20 -31 20 -43 0 -13 9 -32 20 -42 11
-10 20 -26 20 -35 0 -10 7 -23 16 -30 8 -8 22 -27 29 -44 15 -32 27 -52 57
-98 10 -15 18 -34 18 -42 0 -8 9 -21 19 -28 11 -8 23 -26 26 -41 4 -15 10 -27
14 -27 9 0 65 -85 74 -112 4 -10 10 -18 15 -18 5 0 15 -13 22 -29 6 -16 18
-32 26 -35 8 -3 14 -11 14 -17 0 -7 7 -19 15 -28 9 -9 38 -45 65 -81 27 -36
55 -71 61 -78 6 -7 34 -41 62 -75 224 -271 627 -633 895 -802 34 -22 90 -59
125 -82 395 -265 983 -510 1482 -617 358 -77 561 -96 1017 -96 408 0 573 13
904 70 260 44 641 157 928 275 456 187 903 495 1279 882 112 115 142 153 185
238 46 88 62 164 62 285 0 183 -36 296 -146 462 -139 210 -310 307 -544 308
-215 0 -404 -84 -550 -245 -120 -133 -240 -243 -377 -346 -111 -84 -125 -93
-284 -183 -101 -57 -154 -84 -304 -151 -47 -21 -167 -66 -200 -75 -240 -67
-299 -80 -470 -105 -663 -95 -1299 2 -1868 286 -135 68 -303 166 -357 209 -21
17 -41 30 -45 30 -9 0 -80 55 -119 92 -17 15 -33 28 -36 28 -4 0 -18 10 -32
23 -14 12 -60 54 -103 92 -43 39 -83 76 -89 83 -6 7 -22 23 -35 35 -54 48
-141 142 -141 152 0 5 -17 24 -39 44 -21 20 -41 46 -45 59 -4 12 -11 22 -15
22 -5 0 -25 27 -46 60 -21 33 -42 60 -46 60 -5 0 -9 7 -9 15 0 8 -8 23 -17 33
-10 9 -24 28 -31 42 -7 14 -24 43 -37 65 -14 22 -31 54 -39 71 -8 17 -22 36
-30 44 -9 7 -16 23 -16 37 0 13 -7 26 -15 29 -8 3 -19 23 -25 44 -6 21 -17 43
-25 50 -8 7 -15 23 -15 35 0 12 -9 34 -20 48 -11 14 -20 36 -20 50 0 13 -9 34
-19 46 -11 12 -22 40 -26 61 -4 21 -12 44 -20 50 -7 6 -16 36 -20 68 -4 31
-14 65 -22 74 -8 9 -19 48 -23 85 -4 37 -15 82 -23 98 -8 17 -17 65 -19 107
l-3 77 80 6 c44 4 1626 5 3515 3 l3435 -3 85 29 c123 41 192 82 268 156 80 79
103 109 142 189 62 125 77 263 59 546 -5 88 -16 203 -24 255 -9 52 -22 147
-31 210 -9 63 -20 123 -26 134 -6 11 -14 53 -19 93 -4 40 -15 83 -24 95 -8 13
-15 42 -15 65 0 24 -9 69 -20 100 -11 32 -20 64 -20 73 0 8 -9 32 -20 53 -11
20 -20 47 -20 60 0 12 -8 38 -18 57 -11 19 -22 50 -26 69 -3 19 -12 42 -20 50
-7 9 -16 33 -19 55 -3 21 -13 46 -20 55 -8 9 -18 30 -22 48 -3 17 -13 37 -21
44 -8 6 -14 18 -14 27 0 9 -9 34 -19 56 -11 23 -25 52 -30 66 -6 14 -15 32
-20 40 -5 8 -26 49 -45 90 -20 41 -40 82 -46 90 -5 8 -40 69 -77 135 -121 216
-312 488 -483 690 -125 148 -350 380 -454 467 -22 18 -61 51 -86 74 -293 257
-776 550 -1199 728 -383 161 -825 274 -1261 321 -136 15 -655 28 -760 19z
m670 -1402 c107 -13 301 -47 400 -72 131 -32 419 -133 488 -172 18 -10 37 -18
42 -18 17 0 229 -110 314 -163 282 -175 513 -367 708 -587 32 -36 75 -85 98
-110 22 -25 40 -48 40 -52 0 -4 10 -18 23 -33 12 -14 30 -35 39 -48 9 -12 29
-36 43 -53 14 -18 25 -35 25 -38 0 -3 26 -46 57 -94 65 -99 67 -102 146 -257
32 -63 62 -117 67 -120 4 -3 11 -21 15 -42 4 -20 15 -53 25 -72 38 -76 60
-129 60 -149 0 -12 11 -56 25 -98 14 -42 25 -82 25 -88 0 -6 6 -23 14 -37 8
-15 17 -58 21 -97 4 -38 13 -82 21 -97 8 -15 14 -52 14 -81 l0 -54 -542 -2
c-1571 -5 -5567 -6 -5591 -1 -28 5 -29 7 -23 47 4 22 10 75 14 116 5 41 15 89
24 105 8 17 18 52 21 78 4 27 14 58 22 70 8 12 15 35 15 52 0 16 12 53 25 80
14 28 25 61 25 73 0 13 19 63 41 110 71 149 79 169 79 191 0 12 7 24 15 27 8
3 19 23 25 44 6 21 17 43 25 50 8 7 15 18 15 25 0 7 7 18 16 25 8 8 22 27 30
44 29 60 50 98 60 104 15 11 104 147 104 160 0 6 9 16 20 22 11 6 20 16 20 22
0 11 10 23 58 72 12 13 22 25 22 28 0 18 284 305 361 366 30 22 72 57 94 77
22 20 65 53 95 72 30 20 81 56 112 80 31 24 59 43 62 43 3 0 43 22 88 49 83
49 261 141 272 141 3 0 41 16 83 36 43 20 87 40 98 44 40 16 161 59 200 70 22
7 48 16 57 21 9 5 36 12 60 15 24 4 68 13 98 21 56 16 87 21 245 42 50 7 110
16 135 21 58 10 599 4 710 -8z"/>
</g>
</svg>
