<?xml version="1.0" encoding="UTF-8"?>
<!--Generator: Apple Native CoreSVG 341-->
<!DOCTYPE svg
PUBLIC "-//W3C//DTD SVG 1.1//EN"
       "http://www.w3.org/Graphics/SVG/1.1/DTD/svg11.dtd">
<svg version="1.1" xmlns="http://www.w3.org/2000/svg" xmlns:xlink="http://www.w3.org/1999/xlink" viewBox="0 0 556.354 570.557">
 <g>
  <rect height="570.557" opacity="0" width="556.354" x="0" y="0"/>
  <path d="M401.712 537.354C441.995 518.555 451.761 480.225 452.738 430.664C453.47 397.705 450.052 359.375 458.109 322.998C465.921 287.842 485.941 254.639 499.613 224.121C520.12 179.932 527.689 140.869 500.345 106.201C472.269 71.5332 432.718 70.3125 384.622 80.3223C351.907 87.6465 315.042 98.877 278.177 98.877C241.312 98.877 204.447 87.6465 171.976 80.3223C123.636 70.0684 83.841 71.5332 56.2532 106.201C28.6653 140.869 36.2336 179.932 56.7414 224.121C70.4133 254.639 90.1887 287.842 98.2453 323.242C106.302 359.375 102.884 397.705 103.616 430.664C104.593 480.225 114.359 518.555 154.642 537.354C166.605 543.213 178.323 545.898 189.798 545.898C216.409 545.898 242.288 531.738 269.388 510.742C296.243 490.723 325.052 464.111 357.767 448.242C391.214 432.129 428.812 427.002 460.794 418.945C509.134 406.982 544.046 388.916 554.056 345.703C564.066 302.734 540.384 270.508 502.298 239.502C476.175 218.018 444.437 196.533 421.243 167.725C398.538 139.16 385.599 103.76 370.462 73.7305C348.001 30.0293 322.611 0 278.177 0C233.988 0 208.353 30.0293 186.136 73.7305C170.999 103.76 157.816 138.916 134.866 167.725C111.917 196.777 80.1789 218.018 54.3 239.502C16.2141 270.508-7.46755 302.734 2.29808 345.703C12.3078 388.916 47.22 406.982 95.0715 418.945C127.786 427.002 165.14 432.129 198.587 448.242C231.058 464.111 260.111 490.479 286.722 510.986C313.822 531.738 339.7 545.898 366.312 545.898C378.03 545.898 389.749 543.213 401.712 537.354ZM384.866 502.441C357.523 515.137 334.573 497.559 311.136 479.98C281.839 458.008 250.345 429.688 215.921 413.086C180.277 395.996 139.505 389.404 104.349 380.859C75.5403 373.535 47.4641 366.455 40.6282 336.914C34.0364 307.617 56.2532 289.062 78.7141 270.02C106.79 246.826 141.214 222.9 165.384 192.383C190.042 162.109 204.691 123.779 221.292 91.3086C234.72 64.6973 248.148 39.3066 278.177 39.3066C308.45 39.3066 321.634 64.6973 335.062 91.3086C351.419 123.779 366.312 161.865 390.726 192.383C415.14 223.145 449.32 246.826 477.396 270.02C500.345 289.062 522.318 307.617 515.726 336.914C508.89 366.455 480.814 373.535 452.005 380.859C418.558 388.916 376.077 395.996 340.433 413.086C306.009 429.688 273.538 458.496 245.218 480.225C221.78 497.559 198.587 515.137 171.488 502.441C144.632 489.258 143.655 459.961 142.923 430.42C142.191 394.287 145.12 352.783 136.575 314.209C127.786 277.1 107.767 240.723 92.1418 207.031C80.4231 180.42 68.216 154.053 86.7707 130.859C105.814 107.422 133.89 112.793 162.943 118.652C198.343 126.221 238.626 138.184 278.177 138.184C317.728 138.184 358.011 126.221 393.411 118.652C422.464 112.549 450.54 107.422 469.339 130.859C488.138 154.053 475.931 180.42 464.212 207.031C448.587 240.723 428.323 277.1 420.023 314.453C411.234 352.783 414.163 394.287 413.431 430.42C412.698 459.961 411.966 489.258 384.866 502.441Z" fill="black" fill-opacity="0.85"/>
 </g>
</svg>
