<?xml version="1.0" encoding="UTF-8"?>
<!--Generator: Apple Native CoreSVG 341-->
<!DOCTYPE svg
PUBLIC "-//W3C//DTD SVG 1.1//EN"
       "http://www.w3.org/Graphics/SVG/1.1/DTD/svg11.dtd">
<svg version="1.1" xmlns="http://www.w3.org/2000/svg" xmlns:xlink="http://www.w3.org/1999/xlink" viewBox="0 0 453.369 370.361">
 <g>
  <rect height="370.361" opacity="0" width="453.369" x="0" y="0"/>
  <path d="M185.547 370.117C197.51 370.117 207.031 361.328 207.031 349.121C207.031 343.262 204.834 337.402 200.928 333.74L146.24 278.076L44.4336 185.059L146.24 92.041L200.928 36.377C204.834 32.4707 207.031 26.8555 207.031 20.9961C207.031 8.78906 197.51 0 185.547 0C179.688 0 174.561 1.95312 169.189 7.32422L7.56836 168.701C2.68555 173.34 0 178.955 0 185.059C0 191.162 2.68555 196.777 7.56836 201.416L169.678 363.281C174.561 367.92 179.688 370.117 185.547 370.117ZM123.047 206.787L431.885 206.787C444.58 206.787 453.369 197.754 453.369 185.059C453.369 172.363 444.58 163.33 431.885 163.33L123.047 163.33L44.4336 168.213C34.4238 168.213 27.5879 175.049 27.5879 185.059C27.5879 195.068 34.4238 201.904 44.4336 201.904Z" fill="black" fill-opacity="0.85"/>
 </g>
</svg>
