<?xml version="1.0" encoding="UTF-8"?>
<!--Generator: Apple Native CoreSVG 341-->
<!DOCTYPE svg
PUBLIC "-//W3C//DTD SVG 1.1//EN"
       "http://www.w3.org/Graphics/SVG/1.1/DTD/svg11.dtd">
<svg version="1.1" xmlns="http://www.w3.org/2000/svg" xmlns:xlink="http://www.w3.org/1999/xlink" viewBox="0 0 453.369 370.361">
 <g>
  <rect height="370.361" opacity="0" width="453.369" x="0" y="0"/>
  <path d="M267.822 370.117C273.682 370.117 278.809 367.92 283.691 363.281L446.045 201.416C450.928 196.777 453.369 191.162 453.369 185.059C453.369 178.955 450.928 173.34 446.045 168.701L284.18 7.32422C278.809 1.95312 273.682 0 267.822 0C255.859 0 246.582 8.78906 246.582 20.9961C246.582 26.8555 248.535 32.4707 252.441 36.377L307.129 92.041L408.936 185.059L307.129 278.076L252.441 333.74C248.535 337.402 246.582 343.262 246.582 349.121C246.582 361.328 255.859 370.117 267.822 370.117ZM21.4844 206.787L330.322 206.787L408.936 201.904C418.945 201.172 425.781 195.068 425.781 185.059C425.781 175.049 418.945 168.945 408.936 168.213L330.322 163.33L21.4844 163.33C8.78906 163.33 0 172.363 0 185.059C0 197.754 8.78906 206.787 21.4844 206.787Z" fill="black" fill-opacity="0.85"/>
 </g>
</svg>
