<?xml version="1.0" encoding="UTF-8"?>
<!--Generator: Apple Native CoreSVG 341-->
<!DOCTYPE svg
PUBLIC "-//W3C//DTD SVG 1.1//EN"
       "http://www.w3.org/Graphics/SVG/1.1/DTD/svg11.dtd">
<svg version="1.1" xmlns="http://www.w3.org/2000/svg" xmlns:xlink="http://www.w3.org/1999/xlink" viewBox="0 0 460.693 513.916">
 <defs>
  <linearGradient id="gradient1" x1="5" x2="5" y2="513.916" gradientUnits="userSpaceOnUse">
   <stop offset="0" stop-color="#323232" stop-opacity="1"/>
   <stop offset="1" stop-color="black" stop-opacity="1"/>
  </linearGradient>
 </defs>
 <g>
  <rect height="513.916" opacity="0" width="460.693" x="0" y="0"/>
  <path d="M36.8652 416.016L423.828 416.016C446.777 416.016 460.693 404.297 460.693 386.475C460.693 362.061 435.791 340.088 414.795 318.359C398.682 301.514 394.287 266.846 392.334 238.77C390.625 145.02 365.723 80.5664 300.781 57.1289C291.504 25.1465 266.357 0 230.225 0C194.336 0 168.945 25.1465 159.912 57.1289C94.9707 80.5664 70.0684 145.02 68.3594 238.77C66.4062 266.846 62.0117 301.514 45.8984 318.359C24.6582 340.088 0 362.061 0 386.475C0 404.297 13.6719 416.016 36.8652 416.016ZM230.225 513.916C271.729 513.916 302.002 483.643 305.176 449.463L155.518 449.463C158.691 483.643 188.965 513.916 230.225 513.916Z" fill="url(#gradient1)"/>
 </g>
</svg>
