<?xml version="1.0" encoding="UTF-8"?>
<!--Generator: Apple Native CoreSVG 341-->
<!DOCTYPE svg
PUBLIC "-//W3C//DTD SVG 1.1//EN"
       "http://www.w3.org/Graphics/SVG/1.1/DTD/svg11.dtd">
<svg version="1.1" xmlns="http://www.w3.org/2000/svg" xmlns:xlink="http://www.w3.org/1999/xlink" viewBox="0 0 562.256 554.932">
 <g>
  <rect height="554.932" opacity="0" width="562.256" x="0" y="0"/>
  <path d="M281.25 94.2383C299.072 94.2383 313.232 78.3691 313.232 57.8613C313.232 36.8652 306.641 23.1934 294.922 9.52148C287.109-0.244141 276.611-0.488281 268.555 8.05664C256.836 22.2168 249.268 36.1328 249.268 57.8613C249.268 78.3691 263.672 94.2383 281.25 94.2383ZM267.334 206.787L294.434 206.787L294.434 68.1152L267.334 68.1152ZM121.826 282.227L440.674 282.227L440.674 265.137C440.674 216.797 415.771 192.139 366.699 192.139L195.801 192.139C146.973 192.139 121.826 216.797 121.826 265.137ZM38.5742 537.842L523.682 537.842L523.682 388.428C523.682 340.088 498.779 315.43 449.951 315.43L112.549 315.43C63.7207 315.43 38.5742 340.088 38.5742 388.428ZM281.006 434.814C256.836 434.814 239.746 463.135 204.834 463.135C171.143 463.135 155.029 434.814 132.568 434.814C109.619 434.814 93.5059 463.135 47.8516 463.135L38.5742 463.135L38.5742 430.908L47.8516 430.908C82.5195 430.908 99.3652 402.588 132.568 402.588C165.039 402.588 178.223 430.908 204.834 430.908C236.084 430.908 247.803 402.588 281.006 402.588C314.209 402.588 325.928 430.908 357.422 430.908C384.033 430.908 396.973 402.588 429.688 402.588C462.402 402.588 479.492 430.908 513.916 430.908L523.682 430.908L523.682 463.135L513.916 463.135C468.506 463.135 452.148 434.814 429.688 434.814C406.738 434.814 390.869 463.135 357.422 463.135C322.266 463.135 304.932 434.814 281.006 434.814ZM19.5312 554.932L542.725 554.932C553.467 554.932 562.256 545.898 562.256 535.156C562.256 524.414 553.467 515.625 542.725 515.625L19.5312 515.625C8.78906 515.625 0 524.414 0 535.156C0 545.898 8.78906 554.932 19.5312 554.932Z" fill="black" fill-opacity="0.85"/>
 </g>
</svg>
