<?xml version="1.0" encoding="UTF-8"?>
<!--Generator: Apple Native CoreSVG 341-->
<!DOCTYPE svg
PUBLIC "-//W3C//DTD SVG 1.1//EN"
       "http://www.w3.org/Graphics/SVG/1.1/DTD/svg11.dtd">
<svg version="1.1" xmlns="http://www.w3.org/2000/svg" xmlns:xlink="http://www.w3.org/1999/xlink" viewBox="0 0 584.13 557.373">
 <defs>
  <linearGradient id="gradient1" x1="5" x2="5" y2="541.866" gradientUnits="userSpaceOnUse">
   <stop offset="0" stop-color="#323232" stop-opacity="1"/>
   <stop offset="1" stop-color="black" stop-opacity="1"/>
  </linearGradient>
 </defs>
 <g>
  <rect height="557.373" opacity="0" width="584.13" x="0" y="0"/>
  <path d="M30.1022 540.283L76.2448 540.283C95.5319 540.283 106.274 529.297 106.274 510.254L106.274 97.9004C106.274 78.6133 95.5319 67.627 76.2448 67.627L30.1022 67.627C10.571 67.627 0.0729404 78.6133 0.0729404 97.9004L0.0729404 510.254C0.0729404 529.297 10.571 540.283 30.1022 540.283ZM164.868 540.283L263.745 540.283C283.276 540.283 293.774 529.297 293.774 510.254L293.774 181.152C293.774 162.109 283.276 151.123 263.745 151.123L164.868 151.123C145.337 151.123 134.594 162.109 134.594 181.152L134.594 510.254C134.594 529.297 145.337 540.283 164.868 540.283ZM188.061 238.281C179.272 238.281 172.68 231.689 172.68 223.145C172.68 214.844 179.272 208.252 188.061 208.252L241.04 208.252C249.585 208.252 255.932 214.844 255.932 223.145C255.932 231.689 249.585 238.281 241.04 238.281ZM188.061 483.398C179.272 483.398 172.68 476.807 172.68 468.262C172.68 459.961 179.272 453.369 188.061 453.369L241.04 453.369C249.585 453.369 255.932 459.961 255.932 468.262C255.932 476.807 249.585 483.398 241.04 483.398ZM352.368 540.283L412.671 540.283C432.202 540.283 442.7 529.297 442.7 510.254L442.7 30.2734C442.7 10.9863 432.202 0 412.671 0L352.368 0C332.837 0 322.339 10.9863 322.339 30.2734L322.339 510.254C322.339 529.297 332.837 540.283 352.368 540.283ZM518.383 541.504L557.69 535.889C576.733 533.447 586.01 521.729 583.813 502.441L537.182 97.4121C534.985 78.3691 523.51 68.3594 503.979 71.0449L464.917 76.6602C445.63 79.1016 436.352 90.8203 438.55 109.863L485.425 514.893C487.622 533.936 499.096 543.945 518.383 541.504Z" fill="url(#gradient1)"/>
 </g>
</svg>
