<?xml version="1.0" encoding="UTF-8"?>
<!--Generator: Apple Native CoreSVG 341-->
<!DOCTYPE svg
PUBLIC "-//W3C//DTD SVG 1.1//EN"
       "http://www.w3.org/Graphics/SVG/1.1/DTD/svg11.dtd">
<svg version="1.1" xmlns="http://www.w3.org/2000/svg" xmlns:xlink="http://www.w3.org/1999/xlink" viewBox="0 0 508.057 610.883">
 <g>
  <rect height="610.883" opacity="0" width="508.057" x="0" y="0"/>
  <path d="M474.854 145.651L474.854 508.688C474.854 559.714 449.463 585.104 399.17 585.104L228.553 585.104C270.123 579.285 313.316 570.656 361.572 557.272C411.133 543.112 433.838 511.374 433.838 454.489L433.838 97.0672C433.838 88.7839 433.207 80.9689 431.916 73.7093C460.475 83.2348 474.854 107.254 474.854 145.651Z" fill="black" fill-opacity="0.85"/>
  <path d="M33.2031 501.12C33.2031 543.6 59.5703 565.573 104.736 562.888C186.768 558.493 259.277 550.925 352.539 525.29C387.207 515.524 400.635 497.214 400.635 454.489L400.635 97.0672C400.635 48.4833 374.512 24.8016 327.637 35.7879C259.277 51.1688 186.768 63.3758 98.877 68.5028C59.3262 70.9442 33.2031 93.4051 33.2031 137.595ZM72.5098 494.04L72.5098 136.618C72.5098 116.11 85.2051 108.054 103.516 107.077C187.5 102.682 258.545 90.4754 325.439 75.3387C348.145 70.2118 361.328 81.9305 361.328 103.903L361.328 453.024C361.328 475.485 353.76 485.495 334.961 490.378C258.545 511.618 187.5 519.431 106.445 523.581C85.2051 524.557 72.5098 513.815 72.5098 494.04Z" fill="black" fill-opacity="0.85"/>
  <path d="M126.221 193.503C195.312 189.108 250.977 179.587 307.861 166.891C319.092 164.45 321.777 158.835 321.777 151.999C321.777 144.431 315.918 137.839 305.176 140.036C250.977 151.999 195.312 161.765 126.221 166.159C116.455 166.891 112.061 172.751 112.061 180.319C112.061 188.132 117.92 193.991 126.221 193.503ZM126.221 272.116C195.312 267.722 250.977 257.956 307.861 245.505C319.092 243.063 321.777 237.448 321.777 230.612C321.777 223.044 315.918 216.452 305.176 218.649C250.977 230.612 195.312 240.378 126.221 244.772C116.455 245.505 112.061 251.364 112.061 258.688C112.061 266.501 117.92 272.604 126.221 272.116ZM126.221 350.729C195.312 346.335 250.977 336.569 307.861 324.118C319.092 321.677 321.777 316.061 321.777 309.225C321.777 301.657 315.918 295.065 305.176 297.263C250.977 309.225 195.312 318.991 126.221 323.386C116.455 324.118 112.061 329.977 112.061 337.302C112.061 345.114 117.92 351.218 126.221 350.729ZM126.221 429.098C166.26 426.901 192.871 422.995 219.238 418.845C227.295 417.38 231.689 411.032 231.689 404.684C231.689 397.36 225.83 390.28 214.844 392.233C191.406 395.895 165.527 399.557 126.221 401.755C116.455 402.487 112.061 408.347 112.061 415.671C112.061 423.483 117.92 429.587 126.221 429.098Z" fill="black" fill-opacity="0.85"/>
 </g>
</svg>
