<?xml version="1.0" encoding="UTF-8"?>
<!--Generator: Apple Native CoreSVG 341-->
<!DOCTYPE svg
PUBLIC "-//W3C//DTD SVG 1.1//EN"
       "http://www.w3.org/Graphics/SVG/1.1/DTD/svg11.dtd">
<svg version="1.1" xmlns="http://www.w3.org/2000/svg" xmlns:xlink="http://www.w3.org/1999/xlink" viewBox="0 0 541.748 638.428">
 <g>
  <rect height="638.428" opacity="0" width="541.748" x="0" y="0"/>
  <path d="M508.301 192.871L508.301 562.744C508.301 588.135 493.652 604.736 469.971 604.736L387.43 604.736C394.534 592.923 398.438 578.561 398.438 562.744L398.437 485.596L437.988 485.596C443.115 485.596 446.289 482.422 446.289 477.783L446.289 440.186C446.289 435.303 443.115 432.129 437.988 432.129L398.437 432.129L398.437 394.287L437.988 394.287C443.115 394.287 446.289 391.113 446.289 386.23L446.289 348.877C446.289 343.994 443.115 340.82 437.988 340.82L398.437 340.82L398.437 302.979L437.988 302.979C443.115 302.979 446.289 299.561 446.289 294.922L446.289 257.324C446.289 252.686 443.115 249.268 437.988 249.268L398.437 249.268L398.437 150.635L469.971 150.635C493.652 150.635 508.301 166.992 508.301 192.871Z" fill="black"/>
  <path d="M102.783 187.744L102.783 139.16C102.783 132.812 106.689 128.174 113.037 128.174L163.33 128.174C169.678 128.174 174.316 132.812 174.316 139.16L174.316 187.744C174.316 194.336 169.678 198.73 163.33 198.73L113.037 198.73C106.689 198.73 102.783 194.336 102.783 187.744ZM224.365 187.744L224.365 139.16C224.365 132.812 228.516 128.174 235.107 128.174L285.156 128.174C291.748 128.174 295.898 132.812 295.898 139.16L295.898 187.744C295.898 194.336 291.748 198.73 285.156 198.73L235.107 198.73C228.516 198.73 224.365 194.336 224.365 187.744ZM102.783 290.527L102.783 241.699C102.783 235.352 106.689 230.957 113.037 230.957L163.33 230.957C169.678 230.957 174.316 235.352 174.316 241.699L174.316 290.527C174.316 297.119 169.678 301.27 163.33 301.27L113.037 301.27C106.689 301.27 102.783 297.119 102.783 290.527ZM224.365 290.527L224.365 241.699C224.365 235.352 228.516 230.957 235.107 230.957L285.156 230.957C291.748 230.957 295.898 235.352 295.898 241.699L295.898 290.527C295.898 297.119 291.748 301.27 285.156 301.27L235.107 301.27C228.516 301.27 224.365 297.119 224.365 290.527ZM102.783 393.066L102.783 344.482C102.783 337.891 106.689 333.496 113.037 333.496L163.33 333.496C169.678 333.496 174.316 337.891 174.316 344.482L174.316 393.066C174.316 399.414 169.678 404.053 163.33 404.053L113.037 404.053C106.689 404.053 102.783 399.414 102.783 393.066ZM224.365 393.066L224.365 344.482C224.365 337.891 228.516 333.496 235.107 333.496L285.156 333.496C291.748 333.496 295.898 337.891 295.898 344.482L295.898 393.066C295.898 399.414 291.748 404.053 285.156 404.053L235.107 404.053C228.516 404.053 224.365 399.414 224.365 393.066ZM71.7773 604.736L326.66 604.736C350.342 604.736 365.234 588.135 365.234 562.744L365.234 75.4395C365.234 49.8047 350.342 33.4473 326.66 33.4473L71.7773 33.4473C48.0957 33.4473 33.2031 49.8047 33.2031 75.4395L33.2031 562.744C33.2031 588.135 48.0957 604.736 71.7773 604.736ZM140.137 567.139L140.137 494.385C140.137 481.689 147.949 474.121 160.4 474.121L238.281 474.121C250.977 474.121 258.301 481.689 258.301 494.385L258.301 567.139Z" fill="black"/>
 </g>
</svg>
