<?xml version="1.0" encoding="UTF-8"?>
<!--Generator: Apple Native CoreSVG 341-->
<!DOCTYPE svg
PUBLIC "-//W3C//DTD SVG 1.1//EN"
       "http://www.w3.org/Graphics/SVG/1.1/DTD/svg11.dtd">
<svg version="1.1" xmlns="http://www.w3.org/2000/svg" xmlns:xlink="http://www.w3.org/1999/xlink" viewBox="0 0 486.572 449.951">
 <g>
  <rect height="449.951" opacity="0" width="486.572" x="0" y="0"/>
  <path d="M76.6602 449.951L410.156 449.951C461.182 449.951 486.572 424.561 486.572 374.268L486.572 76.1719C486.572 25.8789 461.182 0.488281 410.156 0.488281L76.6602 0.488281C25.6348 0.488281 0 25.6348 0 76.1719L0 374.268C0 424.805 25.6348 449.951 76.6602 449.951ZM72.998 410.645C51.2695 410.645 39.3066 399.17 39.3066 376.465L39.3066 146.24C39.3066 123.779 51.2695 112.061 72.998 112.061L413.33 112.061C435.059 112.061 447.266 123.779 447.266 146.24L447.266 376.465C447.266 399.17 435.059 410.645 413.33 410.645ZM195.801 199.707L210.205 199.707C218.75 199.707 221.436 197.266 221.436 188.721L221.436 174.316C221.436 165.771 218.75 163.086 210.205 163.086L195.801 163.086C187.256 163.086 184.326 165.771 184.326 174.316L184.326 188.721C184.326 197.266 187.256 199.707 195.801 199.707ZM276.855 199.707L291.26 199.707C299.805 199.707 302.734 197.266 302.734 188.721L302.734 174.316C302.734 165.771 299.805 163.086 291.26 163.086L276.855 163.086C268.311 163.086 265.381 165.771 265.381 174.316L265.381 188.721C265.381 197.266 268.311 199.707 276.855 199.707ZM357.91 199.707L372.314 199.707C380.859 199.707 383.789 197.266 383.789 188.721L383.789 174.316C383.789 165.771 380.859 163.086 372.314 163.086L357.91 163.086C349.365 163.086 346.68 165.771 346.68 174.316L346.68 188.721C346.68 197.266 349.365 199.707 357.91 199.707ZM114.746 279.541L128.906 279.541C137.695 279.541 140.381 277.1 140.381 268.555L140.381 254.15C140.381 245.605 137.695 243.164 128.906 243.164L114.746 243.164C105.957 243.164 103.271 245.605 103.271 254.15L103.271 268.555C103.271 277.1 105.957 279.541 114.746 279.541ZM195.801 279.541L210.205 279.541C218.75 279.541 221.436 277.1 221.436 268.555L221.436 254.15C221.436 245.605 218.75 243.164 210.205 243.164L195.801 243.164C187.256 243.164 184.326 245.605 184.326 254.15L184.326 268.555C184.326 277.1 187.256 279.541 195.801 279.541ZM276.855 279.541L291.26 279.541C299.805 279.541 302.734 277.1 302.734 268.555L302.734 254.15C302.734 245.605 299.805 243.164 291.26 243.164L276.855 243.164C268.311 243.164 265.381 245.605 265.381 254.15L265.381 268.555C265.381 277.1 268.311 279.541 276.855 279.541ZM357.91 279.541L372.314 279.541C380.859 279.541 383.789 277.1 383.789 268.555L383.789 254.15C383.789 245.605 380.859 243.164 372.314 243.164L357.91 243.164C349.365 243.164 346.68 245.605 346.68 254.15L346.68 268.555C346.68 277.1 349.365 279.541 357.91 279.541ZM114.746 359.619L128.906 359.619C137.695 359.619 140.381 356.934 140.381 348.389L140.381 333.984C140.381 325.439 137.695 322.998 128.906 322.998L114.746 322.998C105.957 322.998 103.271 325.439 103.271 333.984L103.271 348.389C103.271 356.934 105.957 359.619 114.746 359.619ZM195.801 359.619L210.205 359.619C218.75 359.619 221.436 356.934 221.436 348.389L221.436 333.984C221.436 325.439 218.75 322.998 210.205 322.998L195.801 322.998C187.256 322.998 184.326 325.439 184.326 333.984L184.326 348.389C184.326 356.934 187.256 359.619 195.801 359.619ZM276.855 359.619L291.26 359.619C299.805 359.619 302.734 356.934 302.734 348.389L302.734 333.984C302.734 325.439 299.805 322.998 291.26 322.998L276.855 322.998C268.311 322.998 265.381 325.439 265.381 333.984L265.381 348.389C265.381 356.934 268.311 359.619 276.855 359.619Z" fill="black" fill-opacity="0.85"/>
 </g>
</svg>
