<?xml version="1.0" encoding="UTF-8"?>
<!--Generator: Apple Native CoreSVG 341-->
<!DOCTYPE svg
PUBLIC "-//W3C//DTD SVG 1.1//EN"
       "http://www.w3.org/Graphics/SVG/1.1/DTD/svg11.dtd">
<svg version="1.1" xmlns="http://www.w3.org/2000/svg" xmlns:xlink="http://www.w3.org/1999/xlink" viewBox="0 0 565.186 473.389">
 <g>
  <rect height="473.389" opacity="0" width="565.186" x="0" y="0"/>
  <path d="M75.4395 473.145L489.746 473.145C540.283 473.145 565.186 448.73 565.186 398.682L565.186 161.133C565.186 111.084 540.283 86.6699 489.746 86.6699L75.4395 86.6699C25.1465 86.6699 0 111.084 0 161.133L0 398.682C0 448.73 25.1465 473.145 75.4395 473.145ZM158.691 107.91L196.533 107.91L196.533 64.6973C196.533 46.1426 207.52 35.6445 226.562 35.6445L338.623 35.6445C357.666 35.6445 368.408 46.1426 368.408 64.6973L368.408 107.422L406.25 107.422L406.25 67.3828C406.25 21.4844 382.08 0 337.891 0L227.051 0C185.303 0 158.691 21.4844 158.691 67.3828Z" fill="black" fill-opacity="0.85"/>
 </g>
</svg>
