<?xml version="1.0" encoding="UTF-8"?>
<!--Generator: Apple Native CoreSVG 341-->
<!DOCTYPE svg
PUBLIC "-//W3C//DTD SVG 1.1//EN"
       "http://www.w3.org/Graphics/SVG/1.1/DTD/svg11.dtd">
<svg version="1.1" xmlns="http://www.w3.org/2000/svg" xmlns:xlink="http://www.w3.org/1999/xlink" viewBox="0 0 405.762 506.104">
 <g>
  <rect height="506.104" opacity="0" width="405.762" x="0" y="0"/>
  <path d="M202.881 506.104C206.787 506.104 213.135 504.639 219.238 501.221C358.154 423.34 405.762 390.381 405.762 301.27L405.762 114.502C405.762 88.8672 394.775 80.8105 374.023 72.0215C345.215 60.0586 252.197 26.6113 223.389 16.6016C216.797 14.4043 209.717 12.9395 202.881 12.9395C196.045 12.9395 188.965 14.8926 182.617 16.6016C153.809 24.9023 60.5469 60.3027 31.7383 72.0215C11.2305 80.5664 0 88.8672 0 114.502L0 301.27C0 390.381 47.8516 423.096 186.523 501.221C192.871 504.639 198.975 506.104 202.881 506.104ZM202.881 461.914C198.975 461.914 195.068 460.449 187.744 456.055C74.9512 387.695 38.8184 367.676 38.8184 292.236L38.8184 122.07C38.8184 113.77 40.2832 110.596 47.1191 107.91C84.2285 93.2617 156.25 69.0918 193.115 54.4434C197.021 52.7344 200.195 52.2461 202.881 52.2461C205.566 52.2461 208.74 52.9785 212.646 54.4434C249.512 69.0918 321.045 94.9707 358.887 107.91C365.479 110.352 366.943 113.77 366.943 122.07L366.943 292.236C366.943 367.676 330.811 387.451 218.018 456.055C210.938 460.449 206.787 461.914 202.881 461.914Z" fill="black" fill-opacity="0.85"/>
  <path d="M176.514 363.525C184.57 363.525 191.406 359.619 196.045 352.295L307.861 176.514C310.547 171.875 313.721 166.504 313.721 160.889C313.721 150.146 303.955 143.066 293.701 143.066C287.354 143.066 281.25 146.729 276.855 154.053L175.537 316.65L127.197 254.395C121.582 246.582 115.967 244.385 109.375 244.385C98.6328 244.385 90.5762 252.93 90.5762 263.916C90.5762 269.043 92.7734 274.414 96.1914 279.053L155.518 352.295C161.865 360.352 168.213 363.525 176.514 363.525Z" fill="black" fill-opacity="0.85"/>
 </g>
</svg>
