<?xml version="1.0" encoding="UTF-8"?>
<!--Generator: Apple Native CoreSVG 341-->
<!DOCTYPE svg
PUBLIC "-//W3C//DTD SVG 1.1//EN"
       "http://www.w3.org/Graphics/SVG/1.1/DTD/svg11.dtd">
<svg version="1.1" xmlns="http://www.w3.org/2000/svg" xmlns:xlink="http://www.w3.org/1999/xlink" viewBox="0 0 554.627 554.871">
 <g>
  <rect height="554.871" opacity="0" width="554.627" x="0" y="0"/>
  <path d="M322.235 23.1629L359.833 60.5164C363.739 64.1786 367.157 65.3993 372.284 65.3993L425.018 65.3993C468.964 65.3993 488.983 85.9071 488.983 129.364L488.983 182.343C488.983 187.225 490.448 190.888 494.11 194.55L531.464 232.147C562.225 262.909 562.47 291.473 531.464 322.235L494.11 359.833C490.448 363.739 488.983 367.157 488.983 372.284L488.983 425.018C488.983 468.964 468.72 488.983 425.018 488.983L372.284 488.983C367.157 488.983 363.739 490.448 359.833 494.11L322.235 531.464C291.473 562.225 262.909 562.47 232.147 531.464L194.55 494.11C190.888 490.448 187.225 488.983 182.343 488.983L129.364 488.983C85.6629 488.983 65.3993 468.72 65.3993 425.018L65.3993 372.284C65.3993 367.157 64.1786 363.739 60.5164 359.833L23.1629 322.235C-7.59879 291.473-7.84293 262.909 23.1629 232.147L60.5164 194.55C64.1786 190.888 65.3993 187.225 65.3993 182.343L65.3993 129.364C65.3993 85.4188 85.6629 65.3993 129.364 65.3993L182.343 65.3993C187.225 65.3993 190.888 64.1786 194.55 60.5164L232.147 23.1629C262.909-7.59879 291.473-7.84293 322.235 23.1629ZM353.241 180.389L248.993 347.87L199.432 283.905C193.329 275.848 187.958 273.407 181.122 273.407C169.891 273.407 161.347 282.44 161.347 293.671C161.347 299.042 163.544 304.657 167.206 309.54L228.485 384.735C234.833 393.28 241.669 396.454 249.97 396.454C258.27 396.454 265.35 392.548 270.477 384.735L385.223 203.827C388.153 198.944 391.327 193.329 391.327 187.714C391.327 176.483 381.317 169.159 370.819 169.159C364.227 169.159 357.88 172.821 353.241 180.389Z" fill="black" fill-opacity="0.85"/>
 </g>
</svg>
