<?xml version="1.0" encoding="UTF-8"?>
<!--Generator: Apple Native CoreSVG 341-->
<!DOCTYPE svg
PUBLIC "-//W3C//DTD SVG 1.1//EN"
       "http://www.w3.org/Graphics/SVG/1.1/DTD/svg11.dtd">
<svg version="1.1" xmlns="http://www.w3.org/2000/svg" xmlns:xlink="http://www.w3.org/1999/xlink" viewBox="0 0 573.73 417.236">
 <g>
  <rect height="417.236" opacity="0" width="573.73" x="0" y="0"/>
  <path d="M99.8535 341.553C85.4492 341.553 75.9277 331.787 75.9277 318.115L75.9277 272.949C75.9277 259.033 85.4492 249.512 99.8535 249.512L159.668 249.512C174.072 249.512 183.594 259.033 183.594 272.949L183.594 318.115C183.594 331.787 174.072 341.553 159.668 341.553ZM0 154.053L0 98.6328L573.73 98.6328L573.73 154.053ZM76.6602 417.236L497.07 417.236C548.34 417.236 573.73 392.09 573.73 341.797L573.73 75.9277C573.73 25.6348 548.34 0.244141 497.07 0.244141L76.6602 0.244141C25.6348 0.244141 0 25.6348 0 75.9277L0 341.797C0 392.09 25.6348 417.236 76.6602 417.236Z" fill="black" fill-opacity="0.85"/>
 </g>
</svg>
