<?xml version="1.0" encoding="UTF-8"?>
<!--Generator: Apple Native CoreSVG 341-->
<!DOCTYPE svg
PUBLIC "-//W3C//DTD SVG 1.1//EN"
       "http://www.w3.org/Graphics/SVG/1.1/DTD/svg11.dtd">
<svg version="1.1" xmlns="http://www.w3.org/2000/svg" xmlns:xlink="http://www.w3.org/1999/xlink" viewBox="0 0 565.186 473.389">
 <g>
  <rect height="473.389" opacity="0" width="565.186" x="0" y="0"/>
  <path d="M406.25 67.3828L406.25 86.6699L489.746 86.6699C540.283 86.6699 565.186 111.084 565.186 161.133L565.186 398.682C565.186 448.73 540.283 473.145 489.746 473.145L75.4395 473.145C25.1465 473.145 0 448.73 0 398.682L0 161.133C0 111.084 25.1465 86.6699 75.4395 86.6699L158.691 86.6699L158.691 67.3828C158.691 21.4844 185.303 0 227.051 0L337.891 0C382.08 0 406.25 21.4844 406.25 67.3828ZM260.742 164.795C247.803 164.795 239.258 173.34 239.258 186.523L239.258 236.084L189.209 236.084C176.27 236.084 167.725 244.873 167.725 257.568L167.725 301.758C167.725 314.453 176.514 323.242 189.209 323.242L239.258 323.242L239.258 373.047C239.258 385.986 247.803 394.531 260.742 394.531L304.688 394.531C317.383 394.531 326.172 385.986 326.172 373.047L326.172 323.242L375.977 323.242C388.916 323.242 397.705 314.453 397.705 301.758L397.705 257.568C397.705 244.873 388.916 236.084 375.977 236.084L326.172 236.084L326.172 186.523C326.172 173.34 317.383 164.795 304.688 164.795ZM226.562 35.6445C207.52 35.6445 196.533 46.1426 196.533 64.6973L196.533 86.6699L368.408 86.6699L368.408 64.6973C368.408 46.1426 357.666 35.6445 338.623 35.6445Z" fill="black" fill-opacity="0.85"/>
 </g>
</svg>
