<?xml version="1.0" encoding="UTF-8"?>
<!--Generator: Apple Native CoreSVG 341-->
<!DOCTYPE svg
PUBLIC "-//W3C//DTD SVG 1.1//EN"
       "http://www.w3.org/Graphics/SVG/1.1/DTD/svg11.dtd">
<svg version="1.1" xmlns="http://www.w3.org/2000/svg" xmlns:xlink="http://www.w3.org/1999/xlink" viewBox="0 0 498.047 498.291">
 <g>
  <rect height="498.291" opacity="0" width="498.047" x="0" y="0"/>
  <path d="M249.023 498.047C386.475 498.047 498.047 386.475 498.047 249.023C498.047 111.572 386.475 0 249.023 0C111.572 0 0 111.572 0 249.023C0 386.475 111.572 498.047 249.023 498.047ZM249.023 456.543C134.277 456.543 41.5039 363.77 41.5039 249.023C41.5039 134.277 134.277 41.5039 249.023 41.5039C363.77 41.5039 456.543 134.277 456.543 249.023C456.543 363.77 363.77 456.543 249.023 456.543Z" fill="black" fill-opacity="0.85"/>
  <path d="M174.316 170.654L197.754 170.654L197.754 148.438C197.754 142.09 201.904 138.184 208.74 138.184L289.307 138.184C295.898 138.184 300.049 142.09 300.049 148.438L300.049 170.654L323.242 170.654L323.242 147.217C323.242 127.93 310.547 116.211 290.527 116.211L207.031 116.211C187.012 116.211 174.316 127.93 174.316 147.217ZM148.193 357.422L349.365 357.422C375 357.422 387.939 344.971 387.939 319.58L387.939 197.754C387.939 172.119 375 159.668 349.365 159.668L148.193 159.668C122.559 159.668 109.863 172.119 109.863 197.754L109.863 319.58C109.863 344.971 122.559 357.422 148.193 357.422ZM191.162 269.287L191.162 247.314C191.162 240.723 195.312 236.328 201.904 236.328L227.051 236.328L227.051 211.67C227.051 204.834 231.445 200.928 237.793 200.928L259.766 200.928C266.357 200.928 270.508 204.834 270.508 211.67L270.508 236.328L295.898 236.328C302.246 236.328 306.396 240.723 306.396 247.314L306.396 269.287C306.396 276.123 302.246 280.273 295.898 280.273L270.508 280.273L270.508 305.42C270.508 311.768 266.357 316.162 259.766 316.162L237.793 316.162C231.445 316.162 227.051 311.768 227.051 305.42L227.051 280.273L201.904 280.273C195.312 280.273 191.162 276.123 191.162 269.287Z" fill="black" fill-opacity="0.85"/>
 </g>
</svg>
