<?xml version="1.0" encoding="UTF-8"?>
<!--Generator: Apple Native CoreSVG 341-->
<!DOCTYPE svg
PUBLIC "-//W3C//DTD SVG 1.1//EN"
       "http://www.w3.org/Graphics/SVG/1.1/DTD/svg11.dtd">
<svg version="1.1" xmlns="http://www.w3.org/2000/svg" xmlns:xlink="http://www.w3.org/1999/xlink" viewBox="0 0 498.047 498.291">
 <g>
  <rect height="498.291" opacity="0" width="498.047" x="0" y="0"/>
  <path d="M249.023 498.047C386.475 498.047 498.047 386.475 498.047 249.023C498.047 111.572 386.475 0 249.023 0C111.572 0 0 111.572 0 249.023C0 386.475 111.572 498.047 249.023 498.047ZM249.023 456.543C134.277 456.543 41.5039 363.77 41.5039 249.023C41.5039 134.277 134.277 41.5039 249.023 41.5039C363.77 41.5039 456.543 134.277 456.543 249.023C456.543 363.77 363.77 456.543 249.023 456.543Z" fill="#ff383c"/>
  <path d="M190.43 141.357C148.926 141.357 119.141 172.607 119.141 215.82C119.141 280.029 186.768 339.111 236.816 370.85C241.211 373.291 246.338 376.709 249.512 376.709C252.686 376.709 257.568 373.535 261.23 370.85C310.791 338.379 378.906 280.029 378.906 215.82C378.906 172.607 349.121 141.357 307.617 141.357C281.738 141.357 261.23 156.25 249.023 178.467C236.816 156.25 216.553 141.357 190.43 141.357Z" fill="#ff383c"/>
 </g>
</svg>
