<?xml version="1.0" encoding="UTF-8"?>
<!--Generator: Apple Native CoreSVG 341-->
<!DOCTYPE svg
PUBLIC "-//W3C//DTD SVG 1.1//EN"
       "http://www.w3.org/Graphics/SVG/1.1/DTD/svg11.dtd">
<svg version="1.1" xmlns="http://www.w3.org/2000/svg" xmlns:xlink="http://www.w3.org/1999/xlink" viewBox="0 0 589.111 421.143">
 <g>
  <rect height="421.143" opacity="0" width="589.111" x="0" y="0"/>
  <path d="M294.434 237.793C302.49 237.793 310.303 234.619 317.871 227.783L561.768 12.9395C548.584 4.15039 533.447 0.244141 512.451 0.244141L76.6602 0.244141C55.6641 0.244141 40.5273 4.15039 27.0996 12.9395L270.996 227.783C278.809 234.619 286.621 237.793 294.434 237.793ZM6.34766 381.592L187.012 201.172L5.85938 41.5039C3.17383 46.6309 0 59.082 0 75.9277L0 345.459C0 361.084 2.44141 372.314 6.34766 381.592ZM69.3359 421.143L519.775 421.143C537.598 421.143 551.514 416.748 560.791 410.4L375 224.609L339.355 256.348C325.195 268.799 309.814 275.146 294.434 275.146C279.297 275.146 263.916 268.799 249.756 256.348L214.111 224.609L28.3203 410.4C37.5977 416.748 51.2695 421.143 69.3359 421.143ZM582.764 381.592C586.426 372.314 589.111 361.084 589.111 345.459L589.111 75.9277C589.111 59.082 585.938 46.6309 583.252 41.5039L402.1 201.172Z" fill="black" fill-opacity="0.85"/>
 </g>
</svg>
