<?xml version="1.0" encoding="UTF-8"?>
<!--Generator: Apple Native CoreSVG 341-->
<!DOCTYPE svg
PUBLIC "-//W3C//DTD SVG 1.1//EN"
       "http://www.w3.org/Graphics/SVG/1.1/DTD/svg11.dtd">
<svg version="1.1" xmlns="http://www.w3.org/2000/svg" xmlns:xlink="http://www.w3.org/1999/xlink" viewBox="0 0 920.166 507.08">
 <defs>
  <linearGradient id="gradient1" x1="5" y1="34.9121" x2="5" y2="507.08" gradientUnits="userSpaceOnUse">
   <stop offset="0" stop-color="#323232" stop-opacity="1"/>
   <stop offset="1" stop-color="black" stop-opacity="1"/>
  </linearGradient>
  <linearGradient id="gradient2" x1="5" y1="34.9121" x2="5" y2="507.08" gradientUnits="userSpaceOnUse">
   <stop offset="0" stop-color="#323232" stop-opacity="1"/>
   <stop offset="1" stop-color="black" stop-opacity="1"/>
  </linearGradient>
  <linearGradient id="gradient3" x1="5" y1="34.9121" x2="5" y2="507.08" gradientUnits="userSpaceOnUse">
   <stop offset="0" stop-color="#323232" stop-opacity="1"/>
   <stop offset="1" stop-color="black" stop-opacity="1"/>
  </linearGradient>
 </defs>
 <g>
  <rect height="507.08" opacity="0" width="920.166" x="0" y="0"/>
  <path d="M284.89 320.708C244.309 355.956 221.436 400.992 221.436 441.406C221.436 453.278 224.36 464.354 229.963 473.877L42.9688 473.877C11.9629 473.877 0 461.67 0 439.697C0 372.07 68.8477 290.771 178.955 290.771C220.717 290.771 256.543 302.467 284.89 320.708ZM263.916 159.424C263.916 212.402 224.609 253.418 178.955 253.418C133.545 253.418 93.9941 212.402 93.9941 159.912C93.9941 107.91 133.789 68.1152 178.955 68.1152C224.365 68.1152 263.916 106.934 263.916 159.424Z" fill="url(#gradient1)"/>
  <path d="M920.166 439.697C920.166 461.67 908.203 473.877 877.197 473.877L690.499 473.877C696.075 464.354 698.975 453.278 698.975 441.406C698.975 400.963 676.127 355.891 635.526 320.629C663.851 302.435 699.658 290.771 741.455 290.771C851.562 290.771 920.166 372.07 920.166 439.697ZM826.416 159.424C826.416 212.402 787.109 253.418 741.455 253.418C696.045 253.418 656.25 212.402 656.25 159.912C656.25 107.91 696.045 68.1152 741.455 68.1152C786.865 68.1152 826.416 106.934 826.416 159.424Z" fill="url(#gradient2)"/>
  <path d="M460.449 247.803C512.695 247.803 558.105 200.928 558.105 139.893C558.105 79.5898 512.695 34.9121 460.449 34.9121C408.203 34.9121 362.793 80.5664 362.793 140.381C362.793 200.928 407.959 247.803 460.449 247.803ZM296.387 473.877L624.023 473.877C650.146 473.877 665.771 461.67 665.771 441.406C665.771 378.418 586.914 291.504 460.205 291.504C333.74 291.504 254.883 378.418 254.883 441.406C254.883 461.67 270.508 473.877 296.387 473.877Z" fill="url(#gradient3)"/>
 </g>
</svg>
