<?xml version="1.0" encoding="UTF-8"?>
<!--Generator: Apple Native CoreSVG 341-->
<!DOCTYPE svg
PUBLIC "-//W3C//DTD SVG 1.1//EN"
       "http://www.w3.org/Graphics/SVG/1.1/DTD/svg11.dtd">
<svg version="1.1" xmlns="http://www.w3.org/2000/svg" xmlns:xlink="http://www.w3.org/1999/xlink" viewBox="0 0 661.865 415.283">
 <g>
  <rect height="415.283" opacity="0" width="661.865" x="0" y="0"/>
  <path d="M331.055 415.039C526.611 415.039 661.865 256.836 661.865 207.52C661.865 157.959 526.367 0 331.055 0C137.939 0 0 157.959 0 207.52C0 256.836 137.939 415.039 331.055 415.039ZM331.055 343.994C255.615 343.994 194.58 282.715 194.58 207.52C194.58 132.08 255.615 71.0449 331.055 71.0449C406.25 71.0449 467.529 132.08 467.529 207.52C467.529 282.715 406.25 343.994 331.055 343.994ZM331.055 257.324C358.643 257.324 380.859 235.107 380.859 207.52C380.859 179.932 358.643 157.715 331.055 157.715C303.467 157.715 281.25 179.932 281.25 207.52C281.25 235.107 303.467 257.324 331.055 257.324Z" fill="black" fill-opacity="0.85"/>
 </g>
</svg>
