<?xml version="1.0" encoding="UTF-8"?>
<!--Generator: Apple Native CoreSVG 341-->
<!DOCTYPE svg
PUBLIC "-//W3C//DTD SVG 1.1//EN"
       "http://www.w3.org/Graphics/SVG/1.1/DTD/svg11.dtd">
<svg version="1.1" xmlns="http://www.w3.org/2000/svg" xmlns:xlink="http://www.w3.org/1999/xlink" viewBox="0 0 661.865 513.916">
 <g>
  <rect height="513.916" opacity="0" width="661.865" x="0" y="0"/>
  <path d="M208.784 196.438C199.641 214.583 194.58 235.112 194.58 256.836C194.58 332.031 255.615 393.311 331.055 393.311C352.783 393.311 373.349 388.194 391.536 378.972L454.994 442.354C417.589 456.033 375.908 464.355 331.055 464.355C137.939 464.355 0 306.152 0 256.836C0 227.92 46.9559 162.104 124.662 112.418ZM661.865 256.836C661.865 284.894 618.083 348.2 544.224 397.51L456.703 310.041C463.674 293.683 467.529 275.697 467.529 256.836C467.529 181.396 406.25 120.361 331.055 120.361C312.122 120.361 294.096 124.206 277.72 131.166L215.33 68.8123C250.675 56.5976 289.593 49.3164 331.055 49.3164C526.367 49.3164 661.865 207.275 661.865 256.836ZM347.882 335.371C342.465 336.551 336.832 337.158 331.055 337.158C286.621 337.158 250.732 301.27 250.732 256.836C250.732 251.091 251.332 245.49 252.497 240.099ZM411.377 256.836L410.998 264.364L323.477 176.895C325.966 176.633 328.496 176.514 331.055 176.514C375.488 176.514 411.377 212.402 411.377 256.836Z" fill="black" fill-opacity="0.85"/>
  <path d="M521.729 468.506C529.053 476.074 540.771 476.562 548.34 468.506C556.396 460.449 555.664 449.463 548.34 441.895L140.137 33.9355C132.812 26.6113 120.605 26.6113 113.281 33.9355C106.201 41.0156 106.201 53.4668 113.281 60.5469Z" fill="black" fill-opacity="0.85"/>
 </g>
</svg>
