<?xml version="1.0" encoding="UTF-8"?>
<!--Generator: Apple Native CoreSVG 341-->
<!DOCTYPE svg
PUBLIC "-//W3C//DTD SVG 1.1//EN"
       "http://www.w3.org/Graphics/SVG/1.1/DTD/svg11.dtd">
<svg version="1.1" xmlns="http://www.w3.org/2000/svg" xmlns:xlink="http://www.w3.org/1999/xlink" viewBox="0 0 770.264 304.932">
 <g>
  <rect height="304.932" opacity="0" width="770.264" x="0" y="0"/>
  <path d="M199.463 304.688C283.447 304.688 351.562 236.572 351.562 152.344C351.562 68.3594 283.447 0 199.463 0C115.234 0 46.875 68.3594 46.875 152.344C46.875 236.572 115.234 304.688 199.463 304.688ZM199.463 263.428C137.939 263.428 88.1348 213.867 88.1348 152.344C88.1348 91.0645 137.939 41.2598 199.463 41.2598C260.498 41.2598 310.303 91.3086 310.303 152.344C310.303 213.623 260.498 263.428 199.463 263.428ZM571.289 304.688C655.273 304.688 723.389 236.572 723.389 152.344C723.389 68.3594 655.273 0 571.289 0C487.061 0 418.701 68.3594 418.701 152.344C418.701 236.572 487.061 304.688 571.289 304.688ZM571.289 263.428C510.01 263.428 459.961 213.623 459.961 152.344C459.961 91.3086 510.01 41.2598 571.289 41.2598C632.568 41.2598 682.129 91.0645 682.129 152.344C682.129 213.867 632.568 263.428 571.289 263.428ZM62.9883 122.314L18.3105 122.314C6.34766 122.314 0 128.418 0 140.625L0 150.635C0 162.842 6.34766 169.189 18.3105 169.189L62.9883 169.189ZM707.275 169.189L752.197 169.189C764.16 169.189 770.264 162.842 770.264 150.635L770.264 140.625C770.264 128.418 764.16 122.314 752.197 122.314L707.275 122.314ZM339.6 161.133C351.807 153.564 368.896 149.658 385.254 149.658C401.367 149.658 418.457 153.564 430.908 161.133L430.908 116.943C416.992 110.352 398.926 107.91 385.254 107.91C371.338 107.91 353.271 110.352 339.6 116.943Z" fill="black" fill-opacity="0.85"/>
 </g>
</svg>
