<?xml version="1.0" encoding="UTF-8"?>
<!--Generator: Apple Native CoreSVG 341-->
<!DOCTYPE svg
PUBLIC "-//W3C//DTD SVG 1.1//EN"
       "http://www.w3.org/Graphics/SVG/1.1/DTD/svg11.dtd">
<svg version="1.1" xmlns="http://www.w3.org/2000/svg" xmlns:xlink="http://www.w3.org/1999/xlink" viewBox="0 0 652.344 586.182">
 <g>
  <rect height="586.182" opacity="0" width="652.344" x="0" y="0"/>
  <path d="M548.096 141.357C574.707 141.357 596.191 119.629 596.191 93.0176C596.191 66.1621 574.707 44.9219 548.096 44.9219C521.24 44.9219 499.756 66.1621 499.756 93.0176C499.756 119.629 521.24 141.357 548.096 141.357ZM519.043 537.842C531.006 537.842 540.527 528.32 540.527 516.357L540.527 359.131C540.527 355.225 543.945 351.807 548.096 351.807C552.002 351.807 555.42 355.225 555.42 359.131L555.42 516.357C555.42 528.32 564.941 537.842 577.148 537.842C589.111 537.842 598.633 528.32 598.633 516.357L598.633 258.057C598.633 253.906 601.807 250.977 605.713 250.977C609.619 250.977 612.793 253.906 612.793 258.057L612.793 343.262C612.793 354.492 621.582 363.281 632.812 363.281C643.555 363.281 652.344 354.492 652.344 343.262L652.344 248.047C652.344 199.219 616.455 166.748 563.965 166.748L531.982 166.748C479.492 166.748 443.604 199.219 443.604 248.047L443.604 343.262C443.604 354.492 452.393 363.281 463.379 363.281C474.121 363.281 482.91 354.492 482.91 343.262L482.91 258.057C482.91 253.906 486.084 250.977 489.99 250.977C494.141 250.977 497.314 253.906 497.314 258.057L497.314 516.357C497.314 528.32 507.08 537.842 519.043 537.842Z" fill="black" fill-opacity="0.85"/>
  <path d="M346.68 585.938C357.666 585.938 366.211 577.881 366.211 566.895L366.211 19.043C366.211 8.05664 357.666 0 346.68 0C335.693 0 327.148 8.05664 327.148 19.043L327.148 566.895C327.148 577.881 335.693 585.938 346.68 585.938Z" fill="black" fill-opacity="0.85"/>
  <path d="M132.324 141.357C159.18 141.357 180.42 119.629 180.42 93.0176C180.42 66.1621 159.18 44.9219 132.324 44.9219C105.713 44.9219 84.2285 66.1621 84.2285 93.0176C84.2285 119.629 105.713 141.357 132.324 141.357ZM103.516 537.842C115.479 537.842 124.756 528.32 124.756 516.357L124.756 420.898C124.756 416.748 128.418 413.574 132.324 413.574C136.23 413.574 139.648 416.748 139.648 420.898L139.648 516.357C139.648 528.32 149.17 537.842 161.133 537.842C173.096 537.842 182.861 528.32 182.861 516.357L182.861 420.898L212.646 420.898C224.609 420.898 229.98 410.645 226.074 398.926L181.641 260.986C178.223 250.488 192.139 246.338 195.801 257.08L223.633 341.309C232.666 368.652 272.461 357.91 263.184 330.078L237.549 252.441C219.727 198.73 202.637 166.504 139.648 166.504L124.756 166.504C61.7676 166.504 44.9219 198.73 27.0996 252.441L1.46484 330.078C-7.8125 357.91 31.9824 368.652 41.0156 341.309L68.8477 257.08C72.5098 246.338 86.1816 250.488 83.0078 260.986L38.3301 398.926C34.668 410.645 39.7949 420.898 52.002 420.898L81.7871 420.898L81.7871 516.357C81.7871 528.32 91.3086 537.842 103.516 537.842Z" fill="black" fill-opacity="0.85"/>
 </g>
</svg>
