<?xml version="1.0" encoding="UTF-8"?>
<!--Generator: Apple Native CoreSVG 341-->
<!DOCTYPE svg
PUBLIC "-//W3C//DTD SVG 1.1//EN"
       "http://www.w3.org/Graphics/SVG/1.1/DTD/svg11.dtd">
<svg version="1.1" xmlns="http://www.w3.org/2000/svg" xmlns:xlink="http://www.w3.org/1999/xlink" viewBox="0 0 498.047 498.291">
 <g>
  <rect height="498.291" opacity="0" width="498.047" x="0" y="0"/>
  <path d="M258.789 433.594C290.039 433.594 375.488 321.289 375.488 279.297C375.488 255.615 322.754 209.473 295.166 209.473C283.203 209.473 263.916 226.562 250 226.562C236.084 226.562 204.834 199.219 204.834 187.256C204.834 180.42 210.693 176.514 217.529 176.514C229.492 176.514 248.291 196.533 267.334 196.533C283.203 196.533 291.748 185.547 291.748 169.678C291.748 161.377 287.109 153.076 280.273 142.334C305.42 130.127 355.713 103.76 372.07 70.0684C353.76 41.748 305.176 23.1934 248.535 23.1934C164.795 23.1934 82.2754 72.5098 74.9512 120.361C72.2656 145.996 91.7969 174.072 125.977 203.857L161.621 234.863C172.852 244.873 179.443 249.512 179.443 255.859C179.443 266.357 167.725 273.682 167.725 287.109C167.725 299.316 173.584 309.814 186.279 319.092C225.83 348.877 235.352 353.027 235.352 362.061C235.596 378.174 226.074 390.381 226.074 405.273C226.074 418.701 243.408 433.594 258.789 433.594ZM249.023 498.047C386.475 498.047 498.047 386.475 498.047 249.023C498.047 111.572 386.475 0 249.023 0C111.572 0 0 111.572 0 249.023C0 386.475 111.572 498.047 249.023 498.047ZM249.023 464.844C129.883 464.844 33.2031 368.164 33.2031 249.023C33.2031 129.883 129.883 33.2031 249.023 33.2031C368.164 33.2031 464.844 129.883 464.844 249.023C464.844 368.164 368.164 464.844 249.023 464.844Z" fill="black" fill-opacity="0.85"/>
 </g>
</svg>
