<?xml version="1.0" encoding="UTF-8"?>
<!--Generator: Apple Native CoreSVG 341-->
<!DOCTYPE svg
PUBLIC "-//W3C//DTD SVG 1.1//EN"
       "http://www.w3.org/Graphics/SVG/1.1/DTD/svg11.dtd">
<svg version="1.1" xmlns="http://www.w3.org/2000/svg" xmlns:xlink="http://www.w3.org/1999/xlink" viewBox="0 0 655.029 707.275">
 <defs>
  <linearGradient id="gradient1" x1="5" y1="117.157" x2="5" y2="707.275" gradientUnits="userSpaceOnUse">
   <stop offset="0" stop-color="#323232" stop-opacity="1"/>
   <stop offset="1" stop-color="black" stop-opacity="1"/>
  </linearGradient>
 </defs>
 <g>
  <rect height="707.275" opacity="0" width="655.029" x="0" y="0"/>
  <path d="M631.836 242.676L392.822 133.301C367.92 122.07 347.656 116.699 327.393 117.188C307.373 116.699 287.109 122.07 261.963 133.301L23.1934 242.676C7.56836 249.756 0 262.207 0 274.658C0 287.109 7.56836 299.316 23.1934 306.641L123.779 352.539L278.32 280.029C276.855 278.32 276.367 276.367 276.367 274.658C276.367 259.277 302.246 247.559 328.369 247.559C354.736 247.559 380.127 259.277 380.127 274.658C380.127 290.527 354.736 302.49 328.369 302.49C320.312 302.49 312.256 301.27 305.176 299.316L157.715 368.408L261.963 416.26C287.109 427.734 307.373 432.617 327.393 432.373C347.656 432.617 367.92 427.734 392.822 416.26L631.836 306.641C647.461 299.316 655.029 287.109 655.029 274.658C655.029 262.207 647.461 249.756 631.836 242.676ZM156.738 404.541L156.738 552.979C197.754 577.881 256.348 593.018 327.393 593.018C471.436 593.018 564.209 531.25 564.209 458.252L564.209 374.268L406.738 446.289C378.174 459.473 352.295 466.064 327.393 465.82C302.734 466.064 276.611 459.473 248.047 446.289ZM90.8203 374.268L90.8203 458.252C90.8203 479.492 103.027 505.859 125 528.32L125 390.137ZM125 609.619L156.738 609.619L156.738 552.979C144.531 545.654 133.789 537.354 125 528.32ZM105.713 611.328L105.713 675.537C105.713 694.824 118.164 707.275 137.451 707.275L144.043 707.275C163.33 707.275 175.781 694.824 175.781 675.537L175.781 611.328C175.781 592.041 163.33 579.59 144.043 579.59L137.451 579.59C118.164 579.59 105.713 592.041 105.713 611.328Z" fill="url(#gradient1)"/>
 </g>
</svg>
