<?xml version="1.0" encoding="UTF-8"?>
<!--Generator: Apple Native CoreSVG 341-->
<!DOCTYPE svg
PUBLIC "-//W3C//DTD SVG 1.1//EN"
       "http://www.w3.org/Graphics/SVG/1.1/DTD/svg11.dtd">
<svg version="1.1" xmlns="http://www.w3.org/2000/svg" xmlns:xlink="http://www.w3.org/1999/xlink" viewBox="0 0 583.008 513.916">
 <defs>
  <linearGradient id="gradient1" x1="5" x2="5" y2="513.428" gradientUnits="userSpaceOnUse">
   <stop offset="0" stop-color="#323232" stop-opacity="1"/>
   <stop offset="1" stop-color="black" stop-opacity="1"/>
  </linearGradient>
 </defs>
 <g>
  <rect height="513.916" opacity="0" width="583.008" x="0" y="0"/>
  <path d="M225.586 474.121L225.586 330.566C225.586 319.336 233.154 312.012 244.385 312.012L338.867 312.012C350.342 312.012 357.422 319.336 357.422 330.566L357.422 474.121ZM76.1719 459.717C76.1719 493.652 96.6797 513.428 131.104 513.428L452.148 513.428C486.572 513.428 506.836 493.652 506.836 459.717L506.836 265.869L306.152 97.6562C296.875 89.8438 285.889 90.0879 276.855 97.6562L76.1719 265.869ZM20.9961 260.742C27.832 260.742 33.4473 257.08 38.5742 252.93L282.959 47.6074C285.645 45.4102 288.818 44.1895 291.504 44.1895C294.434 44.1895 297.363 45.4102 300.049 47.6074L544.678 252.93C549.561 257.08 555.176 260.742 562.012 260.742C575.195 260.742 583.008 251.221 583.008 241.211C583.008 235.596 580.811 229.736 575.195 225.342L320.801 11.7188C311.523 3.90625 301.514 0 291.504 0C281.494 0 271.484 3.90625 262.207 11.7188L7.8125 225.342C2.44141 229.736 0 235.596 0 241.211C0 251.221 7.8125 260.742 20.9961 260.742ZM450.439 131.104L511.719 182.861L511.719 72.7539C511.719 62.0117 504.883 55.1758 494.141 55.1758L468.018 55.1758C457.52 55.1758 450.439 62.0117 450.439 72.7539Z" fill="url(#gradient1)"/>
 </g>
</svg>
