<?xml version="1.0" encoding="UTF-8"?>
<!--Generator: Apple Native CoreSVG 341-->
<!DOCTYPE svg
PUBLIC "-//W3C//DTD SVG 1.1//EN"
       "http://www.w3.org/Graphics/SVG/1.1/DTD/svg11.dtd">
<svg version="1.1" xmlns="http://www.w3.org/2000/svg" xmlns:xlink="http://www.w3.org/1999/xlink" viewBox="0 0 311.768 606.122">
 <g>
  <rect height="606.122" opacity="0" width="311.768" x="0" y="0"/>
  <path d="M156.006 3.62255C69.0918 3.62255 0 72.7143 0 159.14C0 224.326 39.0625 281.943 100.098 305.136L100.098 546.103C100.098 552.207 102.051 556.845 106.445 561.484L147.217 602.5C151.367 606.65 159.668 607.871 164.795 602.744L242.188 525.351C247.314 519.98 247.07 512.9 242.188 507.773L194.092 460.41L260.01 394.736C264.648 389.853 264.648 382.773 259.521 377.402L194.336 311.728C269.775 281.699 311.768 226.035 311.768 159.14C311.768 73.2026 242.188 3.62255 156.006 3.62255ZM156.006 146.689C133.301 146.689 115.234 128.378 115.234 105.917C115.234 83.2124 133.057 65.146 156.006 65.146C178.467 65.146 196.777 83.2124 196.777 105.917C196.777 128.378 178.467 146.689 156.006 146.689Z" fill="black" fill-opacity="0.85"/>
 </g>
</svg>
