<?xml version="1.0" encoding="UTF-8"?>
<!--Generator: Apple Native CoreSVG 341-->
<!DOCTYPE svg
PUBLIC "-//W3C//DTD SVG 1.1//EN"
       "http://www.w3.org/Graphics/SVG/1.1/DTD/svg11.dtd">
<svg version="1.1" xmlns="http://www.w3.org/2000/svg" xmlns:xlink="http://www.w3.org/1999/xlink" viewBox="0 0 581.848 557.13">
 <g>
  <rect height="557.13" opacity="0" width="581.848" x="0" y="0"/>
  <path d="M460.481 497.682C458.608 497.852 456.646 497.925 454.621 497.925L127.228 497.925C101.105 497.925 85.4799 485.718 85.4799 465.455C85.4799 404.533 159.247 321.23 278.872 316.073ZM388.703 163.941C388.703 198.342 374.354 228.245 352.429 247.785L210.113 105.469C227.929 77.0811 258.131 58.9605 291.046 58.9605C343.292 58.9605 388.703 103.638 388.703 163.941Z" fill="black" fill-opacity="0.85"/>
  <path d="M518.585 511.597C525.91 518.921 538.117 518.677 545.197 511.353C552.521 503.785 552.521 492.066 545.197 484.742L97.4428 36.7437C90.1186 29.4195 77.9115 29.4195 70.5873 36.7437C63.2631 43.8238 63.2631 56.275 70.5873 63.3551Z" fill="black" fill-opacity="0.85"/>
 </g>
</svg>
