<?xml version="1.0" encoding="UTF-8"?>
<!--Generator: Apple Native CoreSVG 341-->
<!DOCTYPE svg
PUBLIC "-//W3C//DTD SVG 1.1//EN"
       "http://www.w3.org/Graphics/SVG/1.1/DTD/svg11.dtd">
<svg version="1.1" xmlns="http://www.w3.org/2000/svg" xmlns:xlink="http://www.w3.org/1999/xlink" viewBox="0 0 545.41 523.682">
 <defs>
  <linearGradient id="gradient1" x1="5" x2="5" y2="523.438" gradientUnits="userSpaceOnUse">
   <stop offset="0" stop-color="#323232" stop-opacity="1"/>
   <stop offset="1" stop-color="black" stop-opacity="1"/>
  </linearGradient>
 </defs>
 <g>
  <rect height="523.682" opacity="0" width="545.41" x="0" y="0"/>
  <path d="M545.41 75.6836L545.41 447.998C545.41 498.291 520.02 523.438 468.75 523.438L82.5195 523.438C101.562 512.939 107.666 498.291 107.666 472.168L107.666 75.6836C107.666 25.3906 133.301 0 184.326 0L468.75 0C520.02 0 545.41 25.3906 545.41 75.6836ZM60.0586 456.055C60.0586 473.877 47.1191 485.107 30.0293 485.352C12.9395 485.352 0 473.877 0 456.055L0 238.037C0 208.984 18.3105 192.139 48.0957 192.139L60.0586 192.139ZM218.75 287.598C200.684 287.598 189.941 298.34 189.941 316.406L189.941 378.174C189.941 395.996 200.684 406.738 218.75 406.738L279.785 406.738C297.607 406.738 308.35 395.996 308.35 378.174L308.35 316.406C308.35 298.34 297.607 287.598 279.785 287.598ZM356.934 375.488C348.145 375.488 341.797 382.324 341.797 390.869C341.797 399.17 348.145 405.518 356.934 405.518L447.998 405.518C456.543 405.518 462.891 399.17 462.891 390.869C462.891 382.324 456.543 375.488 447.998 375.488ZM356.934 287.598C348.145 287.598 341.797 294.189 341.797 302.979C341.797 311.279 348.145 317.627 356.934 317.627L447.998 317.627C456.543 317.627 462.891 311.279 462.891 302.979C462.891 294.189 456.543 287.598 447.998 287.598ZM205.566 201.416C196.777 201.416 190.186 208.008 190.186 216.553C190.186 224.854 196.777 231.445 205.566 231.445L447.998 231.445C456.543 231.445 463.135 224.854 463.135 216.553C463.135 208.008 456.543 201.416 447.998 201.416ZM205.566 115.479C196.777 115.479 190.186 121.826 190.186 130.127C190.186 138.672 196.777 145.508 205.566 145.508L447.998 145.508C456.543 145.508 463.135 138.672 463.135 130.127C463.135 121.826 456.543 115.479 447.998 115.479Z" fill="url(#gradient1)"/>
 </g>
</svg>
