<?xml version="1.0" encoding="UTF-8"?>
<!--Generator: Apple Native CoreSVG 341-->
<!DOCTYPE svg
PUBLIC "-//W3C//DTD SVG 1.1//EN"
       "http://www.w3.org/Graphics/SVG/1.1/DTD/svg11.dtd">
<svg version="1.1" xmlns="http://www.w3.org/2000/svg" xmlns:xlink="http://www.w3.org/1999/xlink" viewBox="0 0 575.684 449.463">
 <g>
  <rect height="449.463" opacity="0" width="575.684" x="0" y="0"/>
  <path d="M575.684 75.6836L575.684 374.023C575.684 424.316 550.293 449.463 499.023 449.463L76.6602 449.463C25.6348 449.463 0 424.316 0 374.023L0 75.6836C0 25.3906 25.6348 0 76.6602 0L499.023 0C550.293 0 575.684 25.3906 575.684 75.6836ZM362.305 162.354C361.816 165.527 361.572 167.48 361.572 171.143C361.572 179.443 367.676 185.547 376.709 185.547C384.521 185.547 389.404 181.885 391.846 174.072C396.729 157.227 411.133 147.705 430.42 147.705C451.66 147.705 465.332 158.447 465.332 175.781C465.332 193.604 449.951 206.787 429.443 206.787L415.527 206.787C407.715 206.787 401.855 212.158 401.855 220.459C401.855 228.516 407.715 234.375 415.527 234.375L430.908 234.375C455.322 234.375 471.924 247.314 471.924 267.09C471.924 286.377 455.078 299.561 429.688 299.561C408.691 299.561 394.043 290.039 388.184 272.949C385.01 265.381 380.371 261.719 372.803 261.719C363.281 261.719 357.666 268.066 357.666 276.855C357.666 280.029 357.91 281.494 358.398 284.424C363.77 310.059 393.555 327.881 429.199 327.881C474.365 327.881 504.883 304.199 504.883 268.311C504.883 242.432 485.596 222.168 459.229 219.238L459.229 218.75C480.957 215.332 497.803 195.312 497.803 172.119C497.803 141.357 469.971 119.141 430.908 119.141C395.264 119.141 368.408 136.23 362.305 162.354ZM115.479 128.174L75.4395 155.518C70.5566 158.691 68.8477 162.354 68.8477 167.236C68.8477 174.072 74.4629 179.932 80.5664 179.932C83.9844 179.932 86.4258 179.443 91.7969 175.781L120.361 156.982L122.559 156.982L122.559 308.594C122.559 320.312 128.906 327.637 139.404 327.637C150.391 327.637 156.738 320.557 156.738 308.594L156.738 138.916C156.738 126.465 150.146 119.629 138.672 119.629C130.127 119.629 125 121.826 115.479 128.174ZM195.557 163.818C194.58 167.236 194.092 169.434 194.092 172.607C194.092 181.152 199.707 187.012 208.74 187.012C216.797 187.012 220.947 182.129 224.854 175.781C230.225 162.354 241.943 148.193 262.939 148.193C283.447 148.193 297.363 160.4 297.363 178.467C297.363 194.092 284.18 207.52 271.484 221.191L200.928 296.631C197.266 300.537 195.068 304.688 195.068 309.814C195.068 318.848 201.416 324.463 211.182 324.463L323.975 324.463C332.764 324.463 338.867 318.115 338.867 309.57C338.867 301.025 332.764 295.166 323.975 295.166L243.652 295.166L243.652 294.189L295.654 238.525C315.186 217.529 329.102 199.951 329.102 175.781C329.102 141.846 302.246 119.385 261.475 119.385C230.469 119.385 202.637 138.428 195.557 163.818Z" fill="black" fill-opacity="0.85"/>
 </g>
</svg>
