<?xml version="1.0" encoding="UTF-8"?>
<!--Generator: Apple Native CoreSVG 341-->
<!DOCTYPE svg
PUBLIC "-//W3C//DTD SVG 1.1//EN"
       "http://www.w3.org/Graphics/SVG/1.1/DTD/svg11.dtd">
<svg version="1.1" xmlns="http://www.w3.org/2000/svg" xmlns:xlink="http://www.w3.org/1999/xlink" viewBox="0 0 420.654 430.908">
 <g>
  <rect height="430.908" opacity="0" width="420.654" x="0" y="0"/>
  <path d="M159.18 430.908C169.678 430.908 177.979 426.27 183.838 417.236L414.551 53.9551C418.945 46.875 420.654 41.5039 420.654 35.8887C420.654 22.4609 411.865 13.6719 398.438 13.6719C388.672 13.6719 383.301 16.8457 377.441 26.123L158.203 375.488L44.4336 226.562C38.3301 218.018 32.2266 214.6 23.4375 214.6C9.52148 214.6 0 224.121 0 237.549C0 243.164 2.44141 249.512 7.08008 255.371L133.789 416.748C141.113 426.27 148.682 430.908 159.18 430.908Z" fill="black" fill-opacity="0.85"/>
 </g>
</svg>
