<?xml version="1.0" encoding="UTF-8"?>
<!--Generator: Apple Native CoreSVG 341-->
<!DOCTYPE svg
PUBLIC "-//W3C//DTD SVG 1.1//EN"
       "http://www.w3.org/Graphics/SVG/1.1/DTD/svg11.dtd">
<svg version="1.1" xmlns="http://www.w3.org/2000/svg" xmlns:xlink="http://www.w3.org/1999/xlink" viewBox="0 0 410.889 439.209">
 <defs>
  <linearGradient id="gradient1" x1="5" x2="5" y2="438.965" gradientUnits="userSpaceOnUse">
   <stop offset="0" stop-color="#323232" stop-opacity="1"/>
   <stop offset="1" stop-color="black" stop-opacity="1"/>
  </linearGradient>
 </defs>
 <g>
  <rect height="439.209" opacity="0" width="410.889" x="0" y="0"/>
  <path d="M41.748 438.965L369.141 438.965C395.264 438.965 410.889 426.758 410.889 406.494C410.889 343.506 332.031 256.592 205.322 256.592C78.8574 256.592 0 343.506 0 406.494C0 426.758 15.625 438.965 41.748 438.965ZM205.566 212.891C257.812 212.891 303.223 166.016 303.223 104.98C303.223 44.6777 257.812 0 205.566 0C153.32 0 107.91 45.6543 107.91 105.469C107.91 166.016 153.076 212.891 205.566 212.891Z" fill="url(#gradient1)"/>
 </g>
</svg>
