<?xml version="1.0" encoding="UTF-8"?>
<!--Generator: Apple Native CoreSVG 341-->
<!DOCTYPE svg
PUBLIC "-//W3C//DTD SVG 1.1//EN"
       "http://www.w3.org/Graphics/SVG/1.1/DTD/svg11.dtd">
<svg version="1.1" xmlns="http://www.w3.org/2000/svg" xmlns:xlink="http://www.w3.org/1999/xlink" viewBox="0 0 575.684 449.463">
 <g>
  <rect height="449.463" opacity="0" width="575.684" x="0" y="0"/>
  <path d="M575.684 75.6836L575.684 374.023C575.684 424.316 550.293 449.463 499.023 449.463L76.6602 449.463C25.6348 449.463 0 424.316 0 374.023L0 75.6836C0 25.3906 25.6348 0 76.6602 0L499.023 0C550.293 0 575.684 25.3906 575.684 75.6836ZM79.1016 324.463C79.1016 331.787 83.0078 337.158 91.0645 337.158L281.738 337.158C289.795 337.158 293.701 331.787 293.701 324.463C293.701 301.514 259.277 242.432 186.279 242.432C113.281 242.432 79.1016 301.514 79.1016 324.463ZM345.459 305.42C336.67 305.42 330.078 312.256 330.078 320.801C330.078 329.102 336.67 335.449 345.459 335.449L478.76 335.449C487.305 335.449 493.896 329.102 493.896 320.801C493.896 312.256 487.305 305.42 478.76 305.42ZM345.459 209.961C336.67 209.961 330.078 216.309 330.078 224.609C330.078 233.154 336.67 239.99 345.459 239.99L478.76 239.99C487.305 239.99 493.896 233.154 493.896 224.609C493.896 216.309 487.305 209.961 478.76 209.961ZM132.812 166.992C132.812 200.439 156.738 225.342 186.279 225.342C216.064 225.586 239.746 200.439 239.746 166.992C239.746 135.742 216.064 109.863 186.279 109.863C156.738 109.863 132.812 135.742 132.812 166.992ZM345.459 114.258C336.67 114.258 330.078 120.85 330.078 129.15C330.078 137.695 336.67 144.287 345.459 144.287L478.76 144.287C487.305 144.287 493.896 137.695 493.896 129.15C493.896 120.85 487.305 114.258 478.76 114.258Z" fill="black" fill-opacity="0.85"/>
 </g>
</svg>
