<?xml version="1.0" encoding="UTF-8"?>
<!--Generator: Apple Native CoreSVG 341-->
<!DOCTYPE svg
PUBLIC "-//W3C//DTD SVG 1.1//EN"
       "http://www.w3.org/Graphics/SVG/1.1/DTD/svg11.dtd">
<svg version="1.1" xmlns="http://www.w3.org/2000/svg" xmlns:xlink="http://www.w3.org/1999/xlink" viewBox="0 0 455.078 455.811">
 <g>
  <rect height="455.811" opacity="0" width="455.078" x="0" y="0"/>
  <path d="M125 328.857C196.777 400.879 282.715 455.566 351.807 455.566C384.277 455.566 412.598 442.627 431.152 421.875C448.975 401.855 455.078 386.963 455.078 373.779C455.078 363.525 448.73 354.004 432.617 342.773L373.047 300.049C358.154 289.551 351.562 287.598 342.773 287.598C335.205 287.598 328.857 289.062 316.162 295.898L277.1 317.383C272.461 320.068 270.508 320.557 267.09 320.557C262.451 320.557 259.277 319.336 254.639 317.383C236.084 308.838 209.961 288.33 186.768 265.137C163.574 241.943 145.508 218.262 136.23 199.951C135.01 197.51 133.545 193.604 133.545 189.697C133.545 186.523 135.254 183.838 137.207 180.42L160.156 141.113C166.504 130.371 168.213 124.512 168.213 116.211C168.213 106.689 165.039 96.4355 156.006 83.4961L114.99 26.3672C103.271 10.0098 94.4824 0 81.2988 0C64.9414 0 45.166 12.4512 31.0059 26.123C10.7422 45.6543 0 72.998 0 103.76C0 173.34 53.4668 257.568 125 328.857Z" fill="black" fill-opacity="0.85"/>
 </g>
</svg>
