<?xml version="1.0" encoding="UTF-8"?>
<!--Generator: Apple Native CoreSVG 341-->
<!DOCTYPE svg
PUBLIC "-//W3C//DTD SVG 1.1//EN"
       "http://www.w3.org/Graphics/SVG/1.1/DTD/svg11.dtd">
<svg version="1.1" xmlns="http://www.w3.org/2000/svg" xmlns:xlink="http://www.w3.org/1999/xlink" viewBox="0 0 498.047 498.291">
 <g>
  <rect height="498.291" opacity="0" width="498.047" x="0" y="0"/>
  <path d="M498.047 249.023C498.047 386.23 386.475 498.047 249.023 498.047C111.816 498.047 0 386.23 0 249.023C0 111.572 111.816 0 249.023 0C386.475 0 498.047 111.572 498.047 249.023ZM227.783 153.564L227.783 227.539L153.809 227.539C141.113 227.539 132.324 236.328 132.324 249.023C132.324 261.475 141.113 269.775 153.809 269.775L227.783 269.775L227.783 343.994C227.783 356.445 236.328 365.479 248.779 365.479C261.475 365.479 270.264 356.689 270.264 343.994L270.264 269.775L344.482 269.775C356.934 269.775 365.967 261.475 365.967 249.023C365.967 236.328 356.934 227.539 344.482 227.539L270.264 227.539L270.264 153.564C270.264 140.869 261.475 131.836 248.779 131.836C236.328 131.836 227.783 140.869 227.783 153.564Z" fill="black" fill-opacity="0.85"/>
 </g>
</svg>
