<?xml version="1.0" encoding="UTF-8"?>
<!--Generator: Apple Native CoreSVG 341-->
<!DOCTYPE svg
PUBLIC "-//W3C//DTD SVG 1.1//EN"
       "http://www.w3.org/Graphics/SVG/1.1/DTD/svg11.dtd">
<svg version="1.1" xmlns="http://www.w3.org/2000/svg" xmlns:xlink="http://www.w3.org/1999/xlink" viewBox="0 0 478.027 478.271">
 <g>
  <rect height="478.271" opacity="0" width="478.027" x="0" y="0"/>
  <path d="M0 135.742C0 146.484 8.78906 155.273 19.5312 155.273C30.5176 155.273 39.3066 146.484 39.3066 135.742L39.3066 89.5996C39.3066 58.5938 57.8613 39.7949 89.1113 39.7949L136.23 39.7949C146.973 39.7949 156.006 30.7617 156.006 20.0195C156.006 9.27734 146.973 0.488281 136.23 0.488281L89.1113 0.488281C33.6914 0.488281 0 34.4238 0 89.5996ZM478.027 135.742L478.027 89.5996C478.027 34.4238 444.336 0.488281 388.916 0.488281L341.553 0.488281C330.811 0.488281 322.021 9.27734 322.021 20.0195C322.021 30.7617 330.811 39.7949 341.553 39.7949L388.916 39.7949C420.166 39.7949 438.721 58.5938 438.721 89.5996L438.721 135.742C438.721 146.484 447.51 155.273 458.252 155.273C468.994 155.273 478.027 146.484 478.027 135.742ZM0 343.018L0 389.16C0 444.336 33.6914 478.271 89.1113 478.271L136.23 478.271C146.973 478.271 156.006 469.482 156.006 458.74C156.006 447.998 146.973 438.965 136.23 438.965L89.1113 438.965C57.8613 438.965 39.3066 420.166 39.3066 389.16L39.3066 343.018C39.3066 332.275 30.5176 323.242 19.5312 323.242C8.78906 323.242 0 332.275 0 343.018ZM478.027 343.018C478.027 332.275 468.994 323.242 458.252 323.242C447.51 323.242 438.721 332.275 438.721 343.018L438.721 389.16C438.721 420.166 420.166 438.965 388.916 438.965L341.553 438.965C330.811 438.965 322.021 447.998 322.021 458.74C322.021 469.482 330.811 478.271 341.553 478.271L388.916 478.271C444.336 478.271 478.027 444.336 478.027 389.16Z" fill="black" fill-opacity="0.85"/>
  <path d="M132.568 356.201L217.529 356.201C223.633 356.201 228.271 351.562 228.271 345.459L228.271 260.498C228.271 254.639 223.633 249.756 217.529 249.756L132.568 249.756C126.465 249.756 121.826 254.639 121.826 260.498L121.826 345.459C121.826 351.562 126.465 356.201 132.568 356.201ZM143.066 334.961L143.066 270.996L207.031 270.996L207.031 334.961ZM161.621 316.406L188.477 316.406L188.477 289.551L161.621 289.551ZM132.568 228.76L217.529 228.76C223.633 228.76 228.271 224.121 228.271 218.018L228.271 133.057C228.271 126.953 223.633 122.314 217.529 122.314L132.568 122.314C126.465 122.314 121.826 126.953 121.826 133.057L121.826 218.018C121.826 224.121 126.465 228.76 132.568 228.76ZM143.066 207.52L143.066 143.311L207.031 143.311L207.031 207.52ZM161.621 188.721L188.477 188.721L188.477 162.109L161.621 162.109ZM260.01 228.76L344.971 228.76C351.074 228.76 355.713 224.121 355.713 218.018L355.713 133.057C355.713 126.953 351.074 122.314 344.971 122.314L260.01 122.314C253.906 122.314 249.268 126.953 249.268 133.057L249.268 218.018C249.268 224.121 253.906 228.76 260.01 228.76ZM270.508 207.52L270.508 143.311L334.473 143.311L334.473 207.52ZM289.307 188.721L315.918 188.721L315.918 162.109L289.307 162.109ZM252.441 353.027L279.053 353.027L279.053 326.416L252.441 326.416ZM325.928 353.027L352.539 353.027L352.539 326.416L325.928 326.416ZM289.062 316.406L315.918 316.406L315.918 289.551L289.062 289.551ZM252.441 279.541L279.053 279.541L279.053 252.93L252.441 252.93ZM325.928 279.541L352.539 279.541L352.539 252.93L325.928 252.93Z" fill="black" fill-opacity="0.85"/>
 </g>
</svg>
