<?xml version="1.0" encoding="UTF-8"?>
<!--Generator: Apple Native CoreSVG 341-->
<!DOCTYPE svg
PUBLIC "-//W3C//DTD SVG 1.1//EN"
       "http://www.w3.org/Graphics/SVG/1.1/DTD/svg11.dtd">
<svg version="1.1" xmlns="http://www.w3.org/2000/svg" xmlns:xlink="http://www.w3.org/1999/xlink" viewBox="0 0 644.043 523.682">
 <g>
  <rect height="523.682" opacity="0" width="644.043" x="0" y="0"/>
  <path d="M449.219 102.295L449.219 196.533L409.912 196.533L409.912 102.051C409.912 62.0117 387.451 39.3066 347.168 39.3066L140.625 39.3066C100.586 39.3066 77.8809 62.0117 77.8809 102.051L77.8809 421.387C77.8809 461.67 100.586 484.131 140.625 484.131L347.168 484.131C387.451 484.131 409.912 461.67 409.912 421.387L409.912 326.904L449.219 326.904L449.219 421.387C449.219 487.061 412.842 523.438 347.168 523.438L140.869 523.438C75.1953 523.438 38.5742 487.061 38.5742 421.387L38.5742 102.295C38.5742 36.6211 75.1953 0 140.869 0L347.168 0C412.842 0 449.219 36.6211 449.219 102.295Z" fill="black"/>
  <path d="M248.291 261.719C248.291 272.217 256.836 281.006 267.09 281.006L515.625 281.006L581.299 278.076C590.332 277.588 597.656 270.752 597.656 261.719C597.656 252.686 590.332 245.85 581.299 245.361L515.625 242.188L267.09 242.188C256.836 242.188 248.291 251.221 248.291 261.719ZM491.455 178.955C491.455 183.594 493.408 188.965 497.314 192.383L537.598 229.98L571.289 261.719L537.598 293.213L497.314 331.055C493.408 334.473 491.455 339.6 491.455 344.238C491.455 354.248 498.779 362.061 508.789 362.061C513.916 362.061 517.822 359.863 521.484 356.201L599.121 275.879C604.004 270.996 605.713 266.602 605.713 261.719C605.713 256.592 604.004 252.441 599.121 247.559L521.484 166.992C517.822 163.33 513.916 161.377 508.789 161.377C498.779 161.377 491.455 168.701 491.455 178.955Z" fill="black"/>
 </g>
</svg>
