<?xml version="1.0" encoding="UTF-8"?>
<!--Generator: Apple Native CoreSVG 341-->
<!DOCTYPE svg
PUBLIC "-//W3C//DTD SVG 1.1//EN"
       "http://www.w3.org/Graphics/SVG/1.1/DTD/svg11.dtd">
<svg version="1.1" xmlns="http://www.w3.org/2000/svg" xmlns:xlink="http://www.w3.org/1999/xlink" viewBox="0 0 510.254 510.498">
 <g>
  <rect height="510.498" opacity="0" width="510.254" x="0" y="0"/>
  <path d="M232.666 510.254L277.588 510.254C290.283 510.254 299.316 502.686 302.246 490.234L314.941 436.523C324.463 433.35 333.74 429.688 341.797 425.781L388.916 454.59C399.414 461.182 411.377 460.205 420.166 451.416L451.66 420.166C460.449 411.377 461.67 398.682 454.59 388.184L425.781 341.553C429.932 333.008 433.594 324.219 436.279 315.43L490.479 302.49C502.93 299.561 510.254 290.527 510.254 277.832L510.254 233.643C510.254 221.191 502.93 212.158 490.479 209.229L436.768 196.289C433.594 186.279 429.688 177.246 426.27 169.678L455.078 122.314C461.67 111.572 461.182 100.098 452.148 91.0645L420.166 59.5703C411.133 51.2695 400.146 49.3164 389.648 55.9082L341.797 85.4492C333.984 81.2988 324.951 77.6367 314.941 74.4629L302.246 20.0195C299.316 7.56836 290.283 0 277.588 0L232.666 0C219.971 0 210.938 7.56836 207.764 20.0195L195.068 73.9746C185.547 77.1484 176.27 80.8105 167.969 85.2051L120.605 55.9082C110.107 49.3164 98.6328 50.7812 89.8438 59.5703L58.1055 91.0645C49.0723 100.098 48.3398 111.572 55.1758 122.314L83.7402 169.678C80.5664 177.246 76.6602 186.279 73.4863 196.289L19.7754 209.229C7.32422 212.158 0 221.191 0 233.643L0 277.832C0 290.527 7.32422 299.561 19.7754 302.49L73.9746 315.43C76.6602 324.219 80.3223 333.008 84.2285 341.553L55.6641 388.184C48.3398 398.682 49.8047 411.377 58.5938 420.166L89.8438 451.416C98.6328 460.205 110.84 461.182 121.338 454.59L168.213 425.781C176.514 429.688 185.547 433.35 195.068 436.523L207.764 490.234C210.938 502.686 219.971 510.254 232.666 510.254ZM255.127 341.309C207.52 341.309 168.945 302.734 168.945 255.127C168.945 207.52 207.52 168.945 255.127 168.945C302.734 168.945 341.309 207.52 341.309 255.127C341.309 302.734 302.734 341.309 255.127 341.309Z" fill="black"/>
 </g>
</svg>
