<?xml version="1.0" encoding="UTF-8"?>
<!--Generator: Apple Native CoreSVG 341-->
<!DOCTYPE svg
PUBLIC "-//W3C//DTD SVG 1.1//EN"
       "http://www.w3.org/Graphics/SVG/1.1/DTD/svg11.dtd">
<svg version="1.1" xmlns="http://www.w3.org/2000/svg" xmlns:xlink="http://www.w3.org/1999/xlink" viewBox="0 0 602.539 463.135">
 <g>
  <rect height="463.135" opacity="0" width="602.539" x="0" y="0"/>
  <path d="M119.141 278.32L119.141 328.857C119.141 351.807 107.422 363.281 84.2285 363.281L34.9121 363.281C11.7188 363.281 0 351.807 0 328.857L0 278.32C0 255.371 11.7188 244.141 34.9121 244.141L84.2285 244.141C107.422 244.141 119.141 255.615 119.141 278.32Z" fill="black" fill-opacity="0.425"/>
  <path d="M312.256 34.1797L312.256 68.2869C254.881 72.3794 206.791 122.526 206.346 187.012L99.8535 187.012C76.6602 187.012 64.9414 175.781 64.9414 152.832L64.9414 34.1797C64.9414 11.4746 76.6602 0 99.8535 0L277.1 0C300.537 0 312.256 11.4746 312.256 34.1797Z" fill="black" fill-opacity="0.425"/>
  <path d="M602.539 140.381L602.539 282.715C602.539 305.42 590.82 316.895 567.383 316.895L495.361 316.895C472.168 316.895 460.449 305.42 460.449 282.715L460.449 140.381C460.449 117.676 472.168 106.201 495.361 106.201L567.383 106.201C590.82 106.201 602.539 117.676 602.539 140.381Z" fill="black" fill-opacity="0.425"/>
  <path d="M320.068 276.367C363.037 276.367 400.391 237.793 400.391 187.5C400.391 137.939 363.037 101.074 320.068 101.074C277.1 101.074 239.502 138.672 239.502 187.988C239.502 237.793 277.1 276.367 320.068 276.367ZM185.059 462.646L454.834 462.646C476.318 462.646 489.258 452.637 489.258 436.035C489.258 384.033 424.316 312.256 320.068 312.256C215.576 312.256 150.635 384.033 150.635 436.035C150.635 452.637 163.574 462.646 185.059 462.646Z" fill="black" fill-opacity="0.85"/>
 </g>
</svg>
