<?xml version="1.0" encoding="UTF-8"?>
<!--Generator: Apple Native CoreSVG 341-->
<!DOCTYPE svg
PUBLIC "-//W3C//DTD SVG 1.1//EN"
       "http://www.w3.org/Graphics/SVG/1.1/DTD/svg11.dtd">
<svg version="1.1" xmlns="http://www.w3.org/2000/svg" xmlns:xlink="http://www.w3.org/1999/xlink" viewBox="0 0 733.643 625.244">
 <g>
  <rect height="625.244" opacity="0" width="733.643" x="0" y="0"/>
  <path d="M34.9121 335.205L65.5518 365.666L96.1914 335.205C102.539 328.857 112.061 328.613 118.408 335.205C125 341.553 125 351.074 118.408 357.422L87.8788 387.862L118.408 418.213C125 424.561 125 434.326 118.408 440.674C112.061 447.021 102.539 447.021 96.1914 440.674L65.5518 410.124L34.9121 440.674C28.5645 446.777 19.043 447.021 12.6953 440.674C6.10352 434.326 6.10352 424.805 12.6953 418.213L43.2247 387.862L12.6953 357.422C6.10352 351.318 6.10352 341.553 12.6953 335.205C19.043 328.613 28.5645 328.613 34.9121 335.205Z" fill="black" fill-opacity="0.85"/>
  <path d="M178.822 535.889L19.5312 535.889C8.78906 535.889 0 526.855 0 516.113C0 505.371 8.78906 496.582 19.5312 496.582L190.977 496.582C184.982 510.156 180.871 523.417 178.822 535.889ZM326.211 535.889L216.132 535.889C218.23 523.864 222.919 510.501 230.081 496.582L346.496 496.582C340.56 511.247 333.785 524.507 326.211 535.889ZM733.643 516.113C733.643 526.855 724.609 535.889 713.867 535.889L368.88 535.889C375.447 523.909 381.236 510.722 386.267 496.582L713.867 496.582C724.609 496.582 733.643 505.371 733.643 516.113Z" fill="black" fill-opacity="0.85"/>
  <path d="M244.629 625.244C345.703 625.244 411.865 497.803 411.865 335.938C411.865 198.486 349.609 87.6465 251.953 87.6465C189.209 87.6465 140.625 141.113 140.625 209.229C140.625 310.059 223.633 392.09 310.059 432.861C313.477 434.326 316.406 435.059 319.336 435.059C329.102 435.059 336.426 427.246 336.426 418.701C336.426 412.842 333.252 406.982 326.172 403.564C270.264 376.465 177.979 307.617 177.979 209.229C177.979 161.621 210.205 124.756 251.953 124.756C326.904 124.756 374.756 220.215 374.756 335.938C374.756 474.121 320.801 588.135 249.023 588.135C225.586 588.135 214.6 572.754 214.6 550.781C214.6 482.666 317.871 349.854 459.717 349.854C468.262 349.854 473.145 353.516 473.145 359.863C473.145 381.104 461.67 397.705 461.67 418.945C461.67 437.5 475.098 448.73 493.164 448.73C542.725 448.73 602.295 364.014 622.314 364.014C640.381 364.014 617.92 440.186 679.199 440.186C689.453 440.186 702.393 437.5 712.402 430.908C718.262 427.002 722.412 421.143 722.412 413.574C722.412 404.297 716.309 396.729 706.787 396.729C698.242 396.729 691.162 403.809 682.861 403.809C656.494 403.809 681.641 322.754 633.057 322.754C590.332 322.754 524.17 405.273 507.08 405.273C505.127 405.273 503.418 404.053 503.418 401.123C503.418 392.334 514.16 372.314 514.16 352.783C514.16 328.369 493.896 312.744 462.402 312.744C299.316 312.744 176.514 465.82 176.514 557.861C176.514 597.168 198.73 625.244 244.629 625.244Z" fill="black" fill-opacity="0.85"/>
 </g>
</svg>
