<?xml version="1.0" encoding="UTF-8"?>
<!--Generator: Apple Native CoreSVG 341-->
<!DOCTYPE svg
PUBLIC "-//W3C//DTD SVG 1.1//EN"
       "http://www.w3.org/Graphics/SVG/1.1/DTD/svg11.dtd">
<svg version="1.1" xmlns="http://www.w3.org/2000/svg" xmlns:xlink="http://www.w3.org/1999/xlink" viewBox="0 0 682.617 417.725">
 <g>
  <rect height="417.725" opacity="0" width="682.617" x="0" y="0"/>
  <path d="M0 349.121C0 394.043 23.6816 417.48 69.3359 417.48L613.281 417.48C658.691 417.48 682.617 394.043 682.617 349.121L682.617 265.869C651.123 265.869 625.488 240.234 625.488 208.496C625.488 177.002 651.123 151.367 682.617 151.611L682.617 68.1152C682.617 23.4375 658.691 0 613.281 0L69.3359 0C23.6816 0 0 23.4375 0 68.1152L0 151.611C31.4941 151.611 57.1289 177.246 57.1289 208.496C57.1289 240.234 31.4941 265.869 0 265.869ZM505.859 126.465L505.859 40.5273L536.621 40.5273L536.621 126.465ZM505.859 256.348L505.859 161.621L536.621 161.621L536.621 256.348ZM505.859 376.953L505.859 291.504L536.621 291.504L536.621 376.953Z" fill="black"/>
  <path d="M446.533 208.984C446.533 225.342 425.049 237.549 398.438 237.549L346.191 237.549C339.844 237.549 337.891 238.525 333.74 242.92L246.826 337.646C243.652 341.064 239.746 343.018 235.352 343.018L220.215 343.018C215.332 343.018 212.158 338.135 214.355 333.008L257.812 237.061L197.266 230.225L174.561 271.729C172.363 275.635 168.701 277.588 163.574 277.588L157.715 277.588C153.32 277.588 149.902 274.17 149.902 269.531L149.902 148.193C149.902 143.555 153.32 140.381 157.715 140.381L163.574 140.381C168.701 140.381 172.363 142.334 174.561 146.24L197.266 187.744L257.812 180.908L214.355 84.9609C212.158 79.834 215.332 74.9512 220.215 74.9512L235.352 74.9512C239.746 74.9512 243.652 76.6602 246.826 80.3223L333.74 175.049C337.891 179.443 339.844 180.42 346.191 180.42L398.438 180.42C425.049 180.42 446.533 192.627 446.533 208.984Z" fill="black"/>
 </g>
</svg>
