<?xml version="1.0" encoding="UTF-8"?>
<!--Generator: Apple Native CoreSVG 341-->
<!DOCTYPE svg
PUBLIC "-//W3C//DTD SVG 1.1//EN"
       "http://www.w3.org/Graphics/SVG/1.1/DTD/svg11.dtd">
<svg version="1.1" xmlns="http://www.w3.org/2000/svg" xmlns:xlink="http://www.w3.org/1999/xlink" viewBox="0 0 573.242 505.127">
 <g>
  <rect height="505.127" opacity="0" width="573.242" x="0" y="0"/>
  <path d="M72.7539 505.127L467.773 505.127C516.357 505.127 540.527 480.713 540.527 433.35L540.527 396.973L450.195 396.973C391.113 396.973 354.492 359.863 354.492 306.396C354.492 252.93 391.113 215.82 450.195 215.82L540.527 215.82L540.527 179.932C540.527 132.324 516.357 108.154 467.773 108.154L72.7539 108.154C24.4141 108.154 0 132.08 0 179.932L0 433.35C0 480.957 24.4141 505.127 72.7539 505.127ZM446.045 331.299C432.129 331.299 421.143 320.068 421.143 306.396C421.143 292.48 432.129 281.494 446.045 281.494C459.961 281.494 471.191 292.48 471.191 306.396C471.191 320.068 459.961 331.299 446.045 331.299ZM450.195 365.234L537.109 365.234C559.57 365.234 573.242 349.365 573.242 329.59L573.242 283.203C573.242 263.184 559.57 247.314 537.109 247.314L450.195 247.314C411.621 247.314 386.23 267.578 386.23 306.396C386.23 345.215 411.621 365.234 450.195 365.234ZM162.598 74.707L457.275 74.707C457.275 72.7539 457.275 71.0449 457.275 69.0918C454.834 16.8457 417.236 1.2207 365.967 16.1133Z" fill="black"/>
 </g>
</svg>
